<svg xmlns="http://www.w3.org/2000/svg" xmlns:xlink="http://www.w3.org/1999/xlink" width="500" zoomAndPan="magnify" viewBox="0 0 375 374.999991" height="500" preserveAspectRatio="xMidYMid meet" version="1.0"><defs><g/><clipPath id="id1"><path d="M 87.261719 87.261719 L 287.511719 87.261719 L 287.511719 287.511719 L 87.261719 287.511719 Z M 87.261719 87.261719 " clip-rule="nonzero"/></clipPath><clipPath id="id2"><path d="M 154.039062 110.1875 L 220.589844 110.1875 L 220.589844 208.4375 L 154.039062 208.4375 Z M 154.039062 110.1875 " clip-rule="nonzero"/></clipPath></defs><g clip-path="url(#id1)"><path fill="#e6829c" d="M 187.386719 287.511719 C 185.238281 287.511719 183.089844 287.421875 180.9375 287.332031 C 180.671875 287.332031 180.402344 287.0625 180.402344 286.796875 C 180.402344 286.527344 180.671875 286.257812 180.9375 286.257812 C 183.089844 286.4375 185.238281 286.4375 187.386719 286.4375 L 187.476562 286.4375 C 187.746094 286.4375 188.015625 286.707031 188.015625 286.976562 C 188.015625 287.242188 187.746094 287.511719 187.386719 287.511719 Z M 194.015625 287.332031 C 193.746094 287.332031 193.476562 287.152344 193.476562 286.796875 C 193.476562 286.527344 193.65625 286.257812 194.015625 286.257812 C 196.164062 286.078125 198.3125 285.898438 200.460938 285.632812 C 200.730469 285.632812 201 285.808594 201.089844 286.078125 C 201.089844 286.347656 200.910156 286.617188 200.640625 286.707031 C 198.402344 286.976562 196.164062 287.152344 194.015625 287.332031 Z M 174.492188 286.707031 C 172.25 286.4375 170.101562 286.078125 167.953125 285.632812 C 167.683594 285.542969 167.503906 285.273438 167.503906 285.003906 C 167.59375 284.734375 167.863281 284.554688 168.132812 284.554688 C 170.28125 285.003906 172.429688 285.363281 174.492188 285.632812 C 174.757812 285.632812 175.027344 285.898438 174.9375 286.257812 C 175.027344 286.527344 174.757812 286.707031 174.492188 286.707031 Z M 206.910156 285.632812 C 206.640625 285.632812 206.460938 285.453125 206.375 285.183594 C 206.285156 284.914062 206.460938 284.644531 206.820312 284.554688 C 208.96875 284.109375 211.03125 283.660156 213.089844 283.125 C 213.359375 283.035156 213.71875 283.214844 213.71875 283.480469 C 213.804688 283.75 213.628906 284.109375 213.359375 284.109375 C 211.296875 284.644531 209.148438 285.183594 207 285.632812 C 207 285.632812 206.910156 285.632812 206.910156 285.632812 Z M 161.683594 284.199219 C 161.59375 284.199219 161.59375 284.199219 161.503906 284.199219 C 159.445312 283.660156 157.296875 283.035156 155.234375 282.316406 C 154.96875 282.226562 154.789062 281.960938 154.878906 281.601562 C 154.96875 281.332031 155.234375 281.152344 155.59375 281.242188 C 157.652344 281.960938 159.714844 282.585938 161.773438 283.125 C 162.042969 283.214844 162.222656 283.480469 162.132812 283.75 C 162.132812 284.019531 161.953125 284.199219 161.683594 284.199219 Z M 219.449219 282.226562 C 219.179688 282.226562 219 282.050781 218.910156 281.871094 C 218.820312 281.601562 219 281.242188 219.269531 281.152344 C 221.328125 280.4375 223.300781 279.71875 225.359375 278.914062 C 225.628906 278.824219 225.984375 278.914062 226.074219 279.183594 C 226.164062 279.453125 226.074219 279.808594 225.808594 279.898438 C 223.835938 280.707031 221.777344 281.511719 219.71875 282.226562 C 219.628906 282.226562 219.539062 282.226562 219.449219 282.226562 Z M 149.414062 279.988281 C 149.324219 279.988281 149.234375 279.988281 149.234375 279.988281 C 147.265625 279.183594 145.207031 278.289062 143.234375 277.300781 C 142.964844 277.214844 142.878906 276.855469 142.964844 276.585938 C 143.054688 276.316406 143.414062 276.226562 143.683594 276.316406 C 145.652344 277.300781 147.625 278.199219 149.59375 279.003906 C 149.863281 279.09375 150.042969 279.453125 149.863281 279.71875 C 149.773438 279.898438 149.59375 279.988281 149.414062 279.988281 Z M 231.539062 277.214844 C 231.359375 277.214844 231.179688 277.125 231.089844 276.945312 C 231 276.675781 231.089844 276.316406 231.359375 276.226562 C 233.242188 275.242188 235.210938 274.257812 237.089844 273.183594 C 237.359375 273.003906 237.71875 273.09375 237.808594 273.363281 C 237.988281 273.628906 237.898438 273.988281 237.628906 274.078125 C 235.746094 275.152344 233.777344 276.226562 231.898438 277.214844 C 231.628906 277.214844 231.539062 277.214844 231.539062 277.214844 Z M 137.683594 274.257812 C 137.59375 274.257812 137.503906 274.257812 137.414062 274.167969 C 135.535156 273.09375 133.652344 271.929688 131.863281 270.675781 C 131.59375 270.496094 131.503906 270.136719 131.683594 269.957031 C 131.863281 269.691406 132.21875 269.601562 132.398438 269.78125 C 134.191406 270.945312 136.070312 272.109375 137.863281 273.183594 C 138.128906 273.363281 138.21875 273.628906 138.039062 273.898438 C 138.039062 274.167969 137.863281 274.257812 137.683594 274.257812 Z M 242.734375 270.765625 C 242.554688 270.765625 242.375 270.675781 242.285156 270.496094 C 242.105469 270.226562 242.195312 269.871094 242.464844 269.78125 C 244.253906 268.617188 246.046875 267.273438 247.75 266.019531 C 248.015625 265.839844 248.285156 265.839844 248.464844 266.109375 C 248.644531 266.375 248.644531 266.644531 248.375 266.824219 C 246.675781 268.167969 244.882812 269.421875 243.089844 270.675781 C 243.003906 270.675781 242.824219 270.765625 242.734375 270.765625 Z M 126.847656 267.003906 C 126.757812 267.003906 126.578125 267.003906 126.488281 266.914062 C 124.785156 265.570312 123.085938 264.226562 121.382812 262.792969 C 121.113281 262.613281 121.113281 262.257812 121.292969 261.988281 C 121.472656 261.71875 121.832031 261.71875 122.101562 261.898438 C 123.710938 263.332031 125.414062 264.675781 127.113281 266.019531 C 127.382812 266.199219 127.382812 266.554688 127.203125 266.734375 C 127.203125 266.914062 127.027344 267.003906 126.847656 267.003906 Z M 253.121094 262.792969 C 252.941406 262.792969 252.851562 262.703125 252.675781 262.613281 C 252.496094 262.347656 252.496094 262.078125 252.765625 261.808594 C 254.375 260.375 255.988281 258.941406 257.511719 257.421875 C 257.691406 257.242188 258.046875 257.242188 258.316406 257.421875 C 258.496094 257.601562 258.496094 257.957031 258.316406 258.226562 C 256.792969 259.75 255.183594 261.273438 253.570312 262.703125 C 253.300781 262.792969 253.210938 262.792969 253.121094 262.792969 Z M 117.085938 258.40625 C 116.90625 258.40625 116.816406 258.316406 116.726562 258.226562 C 115.203125 256.703125 113.679688 255.09375 112.25 253.480469 C 112.070312 253.210938 112.070312 252.941406 112.339844 252.675781 C 112.605469 252.496094 112.875 252.496094 113.144531 252.765625 C 114.578125 254.375 116.097656 255.988281 117.621094 257.511719 C 117.800781 257.6875 117.800781 258.046875 117.621094 258.316406 C 117.351562 258.316406 117.175781 258.40625 117.085938 258.40625 Z M 262.257812 253.570312 C 262.167969 253.570312 261.988281 253.570312 261.898438 253.480469 C 261.628906 253.300781 261.628906 252.941406 261.808594 252.675781 C 263.242188 251.0625 264.585938 249.359375 265.929688 247.660156 C 266.109375 247.390625 266.464844 247.390625 266.644531 247.570312 C 266.914062 247.75 266.914062 248.105469 266.734375 248.285156 C 265.390625 249.988281 264.046875 251.6875 262.613281 253.390625 C 262.613281 253.570312 262.4375 253.570312 262.257812 253.570312 Z M 108.488281 248.644531 C 108.308594 248.644531 108.128906 248.554688 108.039062 248.464844 C 106.695312 246.761719 105.441406 244.972656 104.1875 243.179688 C 104.007812 242.914062 104.097656 242.554688 104.367188 242.464844 C 104.636719 242.285156 104.996094 242.375 105.082031 242.644531 C 106.25 244.433594 107.589844 246.226562 108.84375 247.925781 C 109.023438 248.195312 109.023438 248.464844 108.753906 248.644531 C 108.667969 248.554688 108.578125 248.644531 108.488281 248.644531 Z M 270.226562 243.269531 C 270.136719 243.269531 270.046875 243.269531 269.957031 243.179688 C 269.691406 243.003906 269.601562 242.644531 269.78125 242.464844 C 270.945312 240.671875 272.109375 238.792969 273.183594 237 C 273.363281 236.734375 273.628906 236.644531 273.898438 236.824219 C 274.167969 237 274.257812 237.269531 274.078125 237.539062 C 273.003906 239.417969 271.839844 241.300781 270.585938 243.089844 C 270.585938 243.179688 270.40625 243.269531 270.226562 243.269531 Z M 101.234375 237.808594 C 101.054688 237.808594 100.875 237.71875 100.785156 237.539062 C 99.710938 235.660156 98.636719 233.6875 97.652344 231.808594 C 97.5625 231.539062 97.652344 231.179688 97.917969 231.089844 C 98.1875 231 98.546875 231.089844 98.636719 231.359375 C 99.621094 233.242188 100.605469 235.210938 101.679688 237.089844 C 101.859375 237.359375 101.769531 237.71875 101.5 237.808594 C 101.410156 237.808594 101.324219 237.808594 101.234375 237.808594 Z M 276.765625 231.988281 C 276.675781 231.988281 276.585938 231.988281 276.496094 231.898438 C 276.226562 231.808594 276.136719 231.449219 276.226562 231.179688 C 277.214844 229.210938 278.109375 227.238281 278.914062 225.269531 C 279.003906 225 279.363281 224.820312 279.632812 225 C 279.898438 225.089844 280.078125 225.449219 279.898438 225.71875 C 279.09375 227.6875 278.199219 229.746094 277.214844 231.71875 C 277.125 231.898438 276.945312 231.988281 276.765625 231.988281 Z M 95.410156 226.164062 C 95.234375 226.164062 94.964844 226.074219 94.875 225.808594 C 94.070312 223.835938 93.261719 221.777344 92.546875 219.71875 C 92.457031 219.449219 92.636719 219.089844 92.902344 219 C 93.171875 218.910156 93.53125 219.089844 93.621094 219.359375 C 94.335938 221.417969 95.054688 223.390625 95.949219 225.449219 C 96.039062 225.71875 95.949219 226.074219 95.679688 226.164062 C 95.589844 226.164062 95.5 226.164062 95.410156 226.164062 Z M 281.78125 219.894531 C 281.691406 219.894531 281.691406 219.894531 281.601562 219.894531 C 281.332031 219.808594 281.152344 219.539062 281.242188 219.179688 C 281.960938 217.121094 282.585938 215.058594 283.125 213 C 283.214844 212.730469 283.480469 212.550781 283.75 212.640625 C 284.019531 212.730469 284.199219 213 284.109375 213.269531 C 283.570312 215.328125 282.945312 217.476562 282.226562 219.539062 C 282.136719 219.808594 281.960938 219.894531 281.78125 219.894531 Z M 91.203125 213.804688 C 90.933594 213.804688 90.753906 213.628906 90.664062 213.449219 C 90.128906 211.386719 89.589844 209.238281 89.144531 207.089844 C 89.054688 206.820312 89.230469 206.550781 89.589844 206.460938 C 89.859375 206.375 90.128906 206.550781 90.21875 206.910156 C 90.664062 209.058594 91.113281 211.121094 91.648438 213.179688 C 91.738281 213.449219 91.5625 213.804688 91.292969 213.804688 C 91.292969 213.804688 91.292969 213.804688 91.203125 213.804688 Z M 285.09375 207.359375 C 285.09375 207.359375 285.003906 207.359375 285.003906 207.359375 C 284.734375 207.269531 284.554688 207 284.554688 206.730469 C 285.003906 204.582031 285.363281 202.433594 285.632812 200.371094 C 285.632812 200.105469 285.898438 199.835938 286.257812 199.925781 C 286.527344 199.925781 286.796875 200.195312 286.707031 200.550781 C 286.4375 202.703125 286.078125 204.851562 285.632812 207 C 285.542969 207.179688 285.363281 207.359375 285.09375 207.359375 Z M 88.695312 201.089844 C 88.425781 201.089844 88.15625 200.910156 88.15625 200.640625 C 87.890625 198.492188 87.621094 196.253906 87.53125 194.105469 C 87.53125 193.835938 87.710938 193.566406 88.066406 193.566406 C 88.335938 193.566406 88.605469 193.746094 88.605469 194.105469 C 88.785156 196.253906 88.964844 198.402344 89.230469 200.550781 C 89.230469 200.730469 89.054688 201 88.695312 201.089844 C 88.785156 201.089844 88.695312 201.089844 88.695312 201.089844 Z M 286.796875 194.460938 C 286.4375 194.460938 286.257812 194.191406 286.257812 193.925781 C 286.4375 191.773438 286.4375 189.625 286.4375 187.476562 L 286.4375 187.207031 C 286.4375 186.9375 286.707031 186.671875 286.976562 186.671875 C 287.242188 186.671875 287.511719 186.9375 287.511719 187.207031 L 287.511719 187.476562 C 287.511719 189.625 287.421875 191.863281 287.332031 194.015625 C 287.332031 194.191406 287.0625 194.460938 286.796875 194.460938 Z M 87.800781 188.101562 C 87.53125 188.101562 87.261719 187.835938 87.261719 187.566406 L 87.261719 187.476562 C 87.261719 185.328125 87.351562 183.179688 87.441406 181.027344 C 87.441406 180.761719 87.710938 180.492188 87.976562 180.492188 C 88.246094 180.492188 88.515625 180.761719 88.515625 181.027344 C 88.425781 183.089844 88.335938 185.238281 88.335938 187.386719 L 88.335938 187.476562 C 88.335938 187.835938 88.15625 188.101562 87.800781 188.101562 Z M 286.796875 181.207031 C 286.527344 181.207031 286.257812 181.027344 286.257812 180.671875 C 286.078125 178.519531 285.898438 176.371094 285.632812 174.222656 C 285.632812 173.953125 285.808594 173.683594 286.078125 173.59375 C 286.347656 173.59375 286.617188 173.773438 286.707031 174.042969 C 286.976562 176.191406 287.242188 178.429688 287.332031 180.582031 C 287.332031 180.847656 287.0625 181.117188 286.796875 181.207031 Z M 88.695312 175.117188 C 88.605469 175.117188 88.605469 175.117188 88.695312 175.117188 C 88.335938 175.117188 88.15625 174.847656 88.15625 174.492188 C 88.425781 172.339844 88.785156 170.191406 89.230469 168.042969 C 89.320312 167.773438 89.589844 167.59375 89.859375 167.59375 C 90.128906 167.683594 90.308594 167.953125 90.308594 168.222656 C 89.859375 170.371094 89.5 172.519531 89.230469 174.582031 C 89.144531 174.847656 88.964844 175.117188 88.695312 175.117188 Z M 285.003906 168.222656 C 284.734375 168.222656 284.554688 168.042969 284.46875 167.773438 C 284.019531 165.625 283.570312 163.566406 282.945312 161.503906 C 282.855469 161.234375 283.035156 160.878906 283.304688 160.878906 C 283.570312 160.789062 283.929688 160.96875 283.929688 161.234375 C 284.46875 163.296875 285.003906 165.445312 285.453125 167.59375 C 285.542969 167.863281 285.363281 168.132812 285.003906 168.222656 C 285.09375 168.222656 285.09375 168.222656 285.003906 168.222656 Z M 91.203125 162.3125 C 91.113281 162.3125 91.113281 162.3125 91.023438 162.3125 C 90.753906 162.222656 90.574219 161.953125 90.664062 161.59375 C 91.203125 159.535156 91.828125 157.386719 92.546875 155.324219 C 92.636719 155.058594 92.902344 154.878906 93.261719 155.058594 C 93.53125 155.144531 93.710938 155.414062 93.621094 155.773438 C 92.902344 157.832031 92.277344 159.894531 91.738281 161.953125 C 91.648438 162.132812 91.382812 162.3125 91.203125 162.3125 Z M 281.691406 155.683594 C 281.421875 155.683594 281.242188 155.503906 281.152344 155.324219 C 280.4375 153.265625 279.71875 151.296875 278.824219 149.234375 C 278.734375 148.96875 278.824219 148.609375 279.09375 148.519531 C 279.363281 148.429688 279.71875 148.519531 279.808594 148.789062 C 280.617188 150.757812 281.421875 152.816406 282.136719 154.878906 C 282.226562 155.144531 282.050781 155.503906 281.78125 155.59375 C 281.78125 155.683594 281.691406 155.683594 281.691406 155.683594 Z M 95.320312 149.953125 C 95.234375 149.953125 95.144531 149.953125 95.144531 149.953125 C 94.875 149.863281 94.695312 149.503906 94.875 149.234375 C 95.679688 147.265625 96.574219 145.207031 97.5625 143.234375 C 97.652344 142.964844 98.007812 142.878906 98.277344 142.964844 C 98.546875 143.054688 98.636719 143.414062 98.546875 143.683594 C 97.5625 145.652344 96.664062 147.625 95.859375 149.59375 C 95.769531 149.863281 95.589844 149.953125 95.320312 149.953125 Z M 276.675781 143.683594 C 276.496094 143.683594 276.316406 143.59375 276.226562 143.414062 C 275.242188 141.535156 274.257812 139.5625 273.183594 137.683594 C 273.003906 137.414062 273.09375 137.054688 273.363281 136.964844 C 273.628906 136.789062 273.988281 136.875 274.078125 137.144531 C 275.152344 139.027344 276.226562 140.996094 277.214844 142.878906 C 277.300781 143.144531 277.214844 143.503906 276.945312 143.59375 C 276.765625 143.683594 276.765625 143.683594 276.675781 143.683594 Z M 101.054688 138.21875 C 100.964844 138.21875 100.875 138.21875 100.785156 138.128906 C 100.515625 137.953125 100.425781 137.683594 100.605469 137.414062 C 101.679688 135.535156 102.84375 133.652344 104.097656 131.863281 C 104.277344 131.59375 104.636719 131.503906 104.816406 131.683594 C 105.082031 131.863281 105.171875 132.21875 104.996094 132.398438 C 103.832031 134.191406 102.664062 136.070312 101.589844 137.953125 C 101.5 138.128906 101.324219 138.21875 101.054688 138.21875 Z M 270.136719 132.398438 C 269.957031 132.398438 269.78125 132.308594 269.691406 132.128906 C 268.527344 130.339844 267.183594 128.546875 265.929688 126.847656 C 265.75 126.578125 265.75 126.308594 266.019531 126.128906 C 266.285156 125.949219 266.554688 125.949219 266.734375 126.21875 C 268.078125 127.921875 269.332031 129.710938 270.585938 131.503906 C 270.765625 131.773438 270.675781 132.128906 270.40625 132.21875 C 270.316406 132.398438 270.226562 132.398438 270.136719 132.398438 Z M 108.308594 127.382812 C 108.21875 127.382812 108.039062 127.382812 107.949219 127.292969 C 107.679688 127.113281 107.679688 126.757812 107.859375 126.578125 C 109.203125 124.875 110.546875 123.175781 111.980469 121.472656 C 112.160156 121.203125 112.515625 121.203125 112.785156 121.382812 C 113.054688 121.5625 113.054688 121.921875 112.875 122.1875 C 111.441406 123.800781 110.097656 125.503906 108.753906 127.203125 C 108.667969 127.382812 108.488281 127.382812 108.308594 127.382812 Z M 262.167969 122.101562 C 261.988281 122.101562 261.898438 122.011719 261.71875 121.921875 C 260.285156 120.308594 258.765625 118.695312 257.242188 117.175781 C 257.0625 116.996094 257.0625 116.636719 257.242188 116.367188 C 257.421875 116.1875 257.777344 116.1875 258.046875 116.367188 C 259.570312 117.890625 261.09375 119.503906 262.527344 121.113281 C 262.703125 121.292969 262.703125 121.652344 262.4375 121.921875 C 262.4375 122.101562 262.257812 122.101562 262.167969 122.101562 Z M 116.90625 117.621094 C 116.726562 117.621094 116.636719 117.53125 116.546875 117.441406 C 116.367188 117.265625 116.367188 116.90625 116.546875 116.636719 C 118.070312 115.113281 119.683594 113.59375 121.292969 112.160156 C 121.5625 111.980469 121.832031 111.980469 122.101562 112.25 C 122.277344 112.425781 122.277344 112.785156 122.011719 113.054688 C 120.398438 114.488281 118.785156 116.011719 117.265625 117.53125 C 117.175781 117.53125 117.085938 117.621094 116.90625 117.621094 Z M 252.941406 112.964844 C 252.851562 112.964844 252.675781 112.964844 252.585938 112.875 C 250.972656 111.441406 249.269531 110.097656 247.570312 108.753906 C 247.300781 108.578125 247.300781 108.21875 247.480469 108.039062 C 247.660156 107.769531 248.015625 107.769531 248.195312 107.949219 C 249.898438 109.292969 251.597656 110.636719 253.300781 112.070312 C 253.570312 112.25 253.570312 112.605469 253.390625 112.875 C 253.210938 112.875 253.03125 112.964844 252.941406 112.964844 Z M 126.667969 109.023438 C 126.488281 109.023438 126.308594 108.933594 126.21875 108.84375 C 126.039062 108.578125 126.039062 108.308594 126.308594 108.128906 C 128.011719 106.785156 129.800781 105.53125 131.59375 104.277344 C 131.863281 104.097656 132.21875 104.1875 132.308594 104.457031 C 132.488281 104.726562 132.398438 105.082031 132.128906 105.171875 C 130.339844 106.335938 128.546875 107.679688 126.847656 108.933594 C 126.9375 109.023438 126.757812 109.023438 126.667969 109.023438 Z M 242.554688 104.996094 C 242.464844 104.996094 242.375 104.996094 242.285156 104.90625 C 240.496094 103.742188 238.613281 102.578125 236.734375 101.5 C 236.464844 101.324219 236.375 101.054688 236.554688 100.785156 C 236.734375 100.515625 237 100.425781 237.269531 100.605469 C 239.152344 101.679688 241.03125 102.84375 242.824219 104.097656 C 243.089844 104.277344 243.179688 104.636719 243.003906 104.816406 C 242.914062 104.90625 242.734375 104.996094 242.554688 104.996094 Z M 137.503906 101.769531 C 137.324219 101.769531 137.144531 101.679688 137.054688 101.5 C 136.875 101.234375 136.964844 100.875 137.234375 100.785156 C 139.117188 99.710938 141.085938 98.636719 142.964844 97.652344 C 143.234375 97.5625 143.59375 97.652344 143.683594 97.917969 C 143.773438 98.1875 143.683594 98.546875 143.414062 98.636719 C 141.445312 99.621094 139.5625 100.605469 137.683594 101.679688 C 137.683594 101.769531 137.59375 101.769531 137.503906 101.769531 Z M 231.269531 98.546875 C 231.179688 98.546875 231.089844 98.546875 231 98.457031 C 229.03125 97.472656 227.0625 96.574219 225.089844 95.769531 C 224.820312 95.679688 224.644531 95.320312 224.820312 95.054688 C 224.910156 94.785156 225.269531 94.605469 225.539062 94.785156 C 227.507812 95.589844 229.570312 96.488281 231.539062 97.472656 C 231.808594 97.5625 231.898438 97.917969 231.808594 98.1875 C 231.71875 98.367188 231.449219 98.546875 231.269531 98.546875 Z M 149.144531 95.949219 C 148.96875 95.949219 148.699219 95.859375 148.609375 95.589844 C 148.519531 95.320312 148.609375 94.964844 148.878906 94.875 C 150.847656 94.070312 152.90625 93.261719 154.96875 92.546875 C 155.234375 92.457031 155.59375 92.636719 155.683594 92.902344 C 155.773438 93.171875 155.59375 93.53125 155.324219 93.621094 C 153.265625 94.335938 151.296875 95.054688 149.234375 95.949219 C 149.324219 95.949219 149.234375 95.949219 149.144531 95.949219 Z M 219.269531 93.53125 C 219.179688 93.53125 219.179688 93.53125 219.089844 93.53125 C 217.03125 92.816406 214.96875 92.1875 212.910156 91.648438 C 212.640625 91.5625 212.464844 91.292969 212.550781 91.023438 C 212.640625 90.753906 212.910156 90.574219 213.179688 90.664062 C 215.238281 91.203125 217.390625 91.828125 219.449219 92.546875 C 219.71875 92.636719 219.894531 92.902344 219.808594 93.261719 C 219.628906 93.441406 219.449219 93.53125 219.269531 93.53125 Z M 161.414062 91.738281 C 161.148438 91.738281 160.96875 91.5625 160.878906 91.382812 C 160.789062 91.113281 160.96875 90.753906 161.234375 90.753906 C 163.296875 90.21875 165.445312 89.679688 167.59375 89.230469 C 167.863281 89.144531 168.132812 89.320312 168.222656 89.679688 C 168.3125 89.949219 168.132812 90.21875 167.773438 90.308594 C 165.625 90.753906 163.566406 91.203125 161.503906 91.828125 C 161.59375 91.738281 161.503906 91.738281 161.414062 91.738281 Z M 206.640625 90.21875 C 206.640625 90.21875 206.550781 90.21875 206.550781 90.21875 C 204.402344 89.769531 202.253906 89.5 200.195312 89.144531 C 199.925781 89.144531 199.65625 88.875 199.746094 88.515625 C 199.746094 88.246094 200.015625 87.976562 200.371094 88.066406 C 202.523438 88.335938 204.671875 88.695312 206.820312 89.144531 C 207.089844 89.230469 207.269531 89.5 207.269531 89.769531 C 207.089844 90.039062 206.910156 90.21875 206.640625 90.21875 Z M 174.222656 89.230469 C 173.953125 89.230469 173.683594 89.054688 173.683594 88.785156 C 173.683594 88.515625 173.863281 88.246094 174.132812 88.15625 C 176.28125 87.890625 178.519531 87.621094 180.671875 87.53125 C 180.9375 87.53125 181.207031 87.710938 181.207031 88.066406 C 181.207031 88.335938 181.027344 88.605469 180.671875 88.605469 C 178.609375 88.695312 176.460938 88.964844 174.222656 89.230469 C 174.3125 89.230469 174.222656 89.230469 174.222656 89.230469 Z M 193.746094 88.515625 C 191.597656 88.425781 189.535156 88.335938 187.386719 88.335938 L 187.207031 88.335938 C 186.9375 88.335938 186.671875 88.066406 186.671875 87.800781 C 186.671875 87.53125 186.9375 87.261719 187.207031 87.261719 L 187.386719 87.261719 C 189.535156 87.261719 191.6875 87.351562 193.746094 87.441406 C 194.015625 87.441406 194.28125 87.710938 194.28125 87.976562 C 194.28125 88.335938 194.015625 88.515625 193.746094 88.515625 Z M 193.746094 88.515625 " fill-opacity="1" fill-rule="nonzero"/></g><g clip-path="url(#id2)"><path fill="#eac3ae" d="M 167.003906 124.089844 C 165.777344 131.578125 164.546875 137.597656 163.683594 141.582031 C 160.359375 156.898438 157.675781 164.433594 157.199219 176.957031 C 157.0625 180.851562 157.175781 183.988281 157.265625 185.933594 C 154.671875 186.941406 153.375 189.871094 154.378906 192.480469 C 154.398438 192.527344 154.398438 192.574219 154.421875 192.597656 C 155.539062 195.070312 158.382812 196.214844 160.90625 195.207031 C 168.550781 205.671875 178.40625 210.457031 184.753906 207.664062 C 186.027344 207.089844 187.800781 205.945312 189.394531 203.402344 L 195.3125 203.21875 C 196.925781 204.503906 199.40625 206.035156 202.523438 206.195312 C 211.808594 206.679688 217.792969 194.679688 218.246094 193.71875 C 221.796875 186.367188 220.636719 179.363281 219.179688 171.1875 C 216.675781 157.222656 212.105469 152.917969 206.597656 134.140625 C 205.050781 128.851562 204.027344 124.5 203.457031 121.84375 C 203.867188 121.617188 205.914062 120.425781 206.597656 117.929688 C 207.300781 115.320312 206.1875 112.414062 204.003906 111.039062 C 201.226562 109.296875 197.039062 110.257812 194.945312 113.648438 C 192.214844 112.640625 189.351562 112.136719 186.4375 112.160156 C 182.320312 112.230469 178.292969 113.351562 174.71875 115.410156 C 172.148438 111.265625 167.074219 110.398438 164.230469 112.550781 C 162.089844 114.175781 161.113281 117.5625 162.386719 120.378906 C 163.660156 123.242188 166.617188 123.996094 167.003906 124.089844 " fill-opacity="1" fill-rule="nonzero"/></g><path fill="#e6829c" d="M 180.316406 183.300781 L 181.429688 173.980469 C 176.996094 170.640625 174.558594 166.449219 175.515625 163.175781 C 175.582031 162.898438 176.175781 160.90625 177.746094 160.382812 C 179.609375 159.738281 182.320312 161.34375 184.160156 164.617188 L 186.074219 156.097656 C 185.777344 155.894531 184.503906 154.953125 184.230469 153.304688 C 183.890625 151.269531 185.253906 149.277344 187.007812 148.65625 C 189.191406 147.878906 192.058594 149.320312 192.921875 152.183594 L 200.316406 151.632812 C 200.542969 148.175781 203.570312 146.136719 205.734375 146.6875 C 207.574219 147.148438 209.144531 149.597656 208.644531 152.390625 C 209.214844 155.25 209.417969 158.984375 207.53125 162.257812 C 204.777344 167.066406 199.632812 167.203125 198.769531 171.460938 C 198.316406 173.707031 199.132812 176.707031 201.429688 178.082031 C 203.546875 179.363281 206.507812 178.996094 208.828125 177.140625 C 209.644531 180.988281 209.394531 184.972656 208.078125 188.679688 C 204.117188 188.292969 200.203125 189.804688 197.542969 192.78125 C 196.378906 193.535156 194.675781 194.40625 192.558594 194.453125 C 189.507812 194.542969 188.597656 192.847656 185.164062 191.839844 C 179.609375 190.214844 176.972656 193.101562 174.421875 190.902344 C 172.785156 189.480469 171.898438 186.550781 173.125 184.582031 C 174.308594 182.660156 177.425781 181.878906 180.316406 183.300781 " fill-opacity="1" fill-rule="nonzero"/><path fill="#f8dfd0" d="M 201.976562 151.472656 C 203.617188 151.3125 205.277344 151.632812 206.757812 152.414062 C 207.371094 150.464844 206.164062 148.703125 204.914062 148.519531 C 203.707031 148.3125 202.09375 149.527344 201.976562 151.472656 Z M 186.597656 154.886719 C 187.621094 153.464844 189.191406 152.503906 190.917969 152.253906 C 189.988281 150.285156 187.800781 149.757812 186.734375 150.488281 C 185.710938 151.152344 185.324219 153.238281 186.597656 154.886719 Z M 195.628906 160.839844 C 197.269531 160.769531 199.679688 161.433594 200.042969 162.96875 C 200.429688 164.570312 198.40625 166.515625 196.3125 166.722656 C 193.832031 166.996094 191.304688 164.867188 191.558594 163.199219 C 191.808594 161.777344 193.992188 160.929688 195.628906 160.839844 Z M 197.542969 114.703125 C 198.179688 115.046875 198.769531 115.433594 199.339844 115.871094 C 200.519531 116.761719 201.546875 117.839844 202.410156 119.050781 C 203.640625 118.386719 204.390625 117.058594 204.34375 115.640625 C 204.277344 114.539062 203.707031 113.394531 202.730469 112.847656 C 201.226562 112 198.882812 112.664062 197.542969 114.703125 Z M 167.734375 122.050781 C 168.300781 119.347656 170.238281 117.152344 172.808594 116.257812 C 170.828125 113.511719 167.6875 112.914062 166.117188 114.082031 C 164.820312 115.046875 164.660156 117.128906 164.957031 118.503906 C 165.480469 120.835938 167.460938 121.914062 167.734375 122.050781 Z M 185.6875 130.980469 C 188.234375 130.867188 191.964844 131.964844 192.535156 134.507812 C 193.125 137.1875 190.007812 140.414062 186.753906 140.78125 C 182.933594 141.214844 178.972656 137.667969 179.40625 134.875 C 179.746094 132.5625 183.160156 131.117188 185.6875 130.980469 " fill-opacity="1" fill-rule="nonzero"/><path fill="#ff9fb8" d="M 199.15625 131.578125 C 196.996094 131.578125 195.242188 133.339844 195.242188 135.515625 C 195.242188 137.691406 196.996094 139.453125 199.15625 139.453125 C 201.316406 139.453125 203.070312 137.691406 203.070312 135.515625 C 203.070312 133.339844 201.316406 131.578125 199.15625 131.578125 Z M 176.265625 136.429688 C 176.265625 138.859375 174.308594 140.828125 171.898438 140.828125 C 169.484375 140.828125 167.527344 138.859375 167.527344 136.429688 C 167.527344 134.003906 169.507812 132.058594 171.898438 132.058594 C 174.285156 132.058594 176.265625 134.003906 176.265625 136.429688 Z M 203.070312 160.839844 C 201.933594 160.839844 201.023438 161.753906 201.023438 162.898438 C 201.023438 164.042969 201.933594 164.960938 203.070312 164.960938 C 204.207031 164.960938 205.117188 164.042969 205.117188 162.898438 C 205.117188 161.753906 204.183594 160.839844 203.070312 160.839844 Z M 190.667969 162.898438 C 190.667969 164.042969 189.757812 164.960938 188.621094 164.960938 C 187.484375 164.960938 186.574219 164.042969 186.574219 162.898438 C 186.574219 161.753906 187.484375 160.839844 188.621094 160.839844 C 189.757812 160.839844 190.667969 161.753906 190.667969 162.898438 " fill-opacity="1" fill-rule="nonzero"/><path fill="#100f0d" d="M 193.628906 164.089844 C 193.695312 164.6875 194.21875 165.121094 194.8125 165.050781 C 194.925781 165.027344 195.039062 165.007812 195.152344 164.960938 C 195.949219 164.617188 196.109375 163.699219 195.925781 162.945312 C 195.902344 162.832031 195.765625 162.761719 195.652344 162.785156 C 195.539062 162.808594 195.46875 162.945312 195.492188 163.058594 C 195.605469 163.519531 195.585938 164.066406 195.199219 164.410156 C 194.832031 164.707031 194.171875 164.640625 194.105469 164.089844 C 194.058594 163.792969 193.605469 163.792969 193.628906 164.089844 " fill-opacity="1" fill-rule="nonzero"/><path fill="#100f0d" d="M 195.539062 163.5625 C 195.355469 164.226562 195.742188 164.890625 196.402344 165.074219 C 196.449219 165.074219 196.472656 165.097656 196.515625 165.097656 C 197.289062 165.210938 197.929688 164.503906 197.972656 163.769531 C 197.996094 163.472656 197.542969 163.472656 197.519531 163.769531 C 197.496094 164.226562 197.109375 164.6875 196.632812 164.664062 C 196.222656 164.617188 195.902344 164.226562 195.972656 163.792969 C 195.972656 163.746094 195.972656 163.722656 195.992188 163.679688 C 196.015625 163.5625 195.949219 163.425781 195.835938 163.402344 C 195.722656 163.378906 195.585938 163.449219 195.539062 163.5625 " fill-opacity="1" fill-rule="nonzero"/><path fill="#100f0d" d="M 194.992188 162.625 C 194.832031 162.785156 194.832031 163.035156 194.992188 163.199219 C 195.175781 163.402344 195.515625 163.378906 195.765625 163.359375 C 195.972656 163.335938 196.152344 163.199219 196.222656 162.992188 C 196.289062 162.761719 196.175781 162.53125 195.972656 162.464844 C 195.949219 162.464844 195.949219 162.464844 195.925781 162.441406 C 195.5625 162.371094 194.582031 162.648438 194.992188 163.175781 C 195.242188 163.519531 196.199219 163.402344 196.265625 162.945312 C 196.359375 162.394531 195.378906 162.394531 195.105469 162.671875 C 194.96875 162.855469 194.992188 163.105469 195.152344 163.265625 C 195.175781 163.289062 195.175781 163.289062 195.199219 163.3125 C 195.402344 163.472656 195.699219 163.496094 195.925781 163.402344 C 196.152344 163.335938 196.425781 163.199219 196.472656 162.945312 C 196.515625 162.691406 196.246094 162.53125 196.015625 162.488281 C 195.742188 162.417969 195.46875 162.441406 195.21875 162.578125 C 195.039062 162.671875 194.945312 162.921875 195.0625 163.105469 C 195.082031 163.128906 195.082031 163.152344 195.105469 163.175781 C 195.425781 163.519531 195.972656 163.519531 196.3125 163.199219 C 196.378906 163.128906 196.425781 163.058594 196.472656 162.992188 C 196.5625 162.691406 196.152344 162.53125 195.925781 162.488281 C 195.628906 162.417969 195.335938 162.488281 195.082031 162.648438 C 194.832031 162.808594 195.0625 163.199219 195.3125 163.035156 C 195.515625 162.898438 195.902344 162.832031 196.085938 163.058594 L 196.015625 162.898438 C 196.039062 162.808594 196.015625 162.855469 195.949219 162.898438 C 195.925781 162.921875 195.878906 162.945312 195.835938 162.945312 C 195.742188 162.96875 195.652344 162.992188 195.585938 162.96875 C 195.5625 162.96875 195.449219 162.875 195.46875 162.945312 C 195.492188 163.015625 195.539062 162.945312 195.605469 162.945312 C 195.722656 162.921875 195.835938 162.921875 195.949219 162.945312 C 196.015625 162.96875 196.039062 163.015625 196.039062 162.921875 C 196.039062 162.832031 195.992188 162.898438 195.925781 162.921875 C 195.8125 162.992188 195.699219 163.015625 195.585938 162.992188 C 195.5625 162.992188 195.539062 162.96875 195.539062 162.96875 C 195.515625 162.945312 195.492188 162.945312 195.46875 162.992188 C 195.425781 163.035156 195.425781 163.035156 195.492188 162.992188 L 195.5625 162.96875 C 195.628906 162.945312 195.8125 162.945312 195.855469 163.015625 L 195.835938 162.832031 C 195.878906 162.808594 195.855469 162.808594 195.789062 162.855469 L 195.722656 162.875 C 195.652344 162.898438 195.5625 162.921875 195.492188 162.921875 C 195.449219 162.921875 195.402344 162.921875 195.355469 162.898438 L 195.378906 163.015625 C 195.378906 163.015625 195.585938 162.945312 195.585938 162.921875 C 195.652344 162.898438 195.742188 162.898438 195.8125 162.875 C 195.789062 162.875 195.722656 162.898438 195.699219 162.898438 C 195.628906 162.898438 195.5625 162.898438 195.515625 162.898438 C 195.46875 162.898438 195.449219 162.898438 195.402344 162.898438 C 195.355469 162.875 195.335938 162.875 195.355469 162.945312 C 195.515625 162.714844 195.199219 162.394531 194.992188 162.625 " fill-opacity="1" fill-rule="nonzero"/><path fill="#100f0d" d="M 185.117188 135.058594 C 185.503906 135.261719 185.980469 135.261719 186.390625 135.058594 C 186.6875 134.898438 186.800781 134.53125 186.484375 134.300781 C 186.050781 133.980469 184.320312 134.117188 184.800781 134.964844 C 185.050781 135.398438 185.617188 135.21875 186.003906 135.148438 C 186.324219 135.101562 186.824219 134.988281 186.664062 134.554688 C 186.414062 133.796875 184.867188 133.933594 184.753906 134.738281 C 184.730469 134.828125 184.777344 134.941406 184.867188 134.988281 C 185.164062 135.171875 185.503906 135.238281 185.84375 135.195312 C 186.140625 135.148438 186.574219 135.011719 186.664062 134.667969 C 186.871094 133.957031 185.6875 133.910156 185.300781 134.09375 C 185.070312 134.210938 184.777344 134.460938 184.84375 134.757812 C 184.914062 135.058594 185.253906 135.148438 185.503906 135.171875 C 185.867188 135.21875 186.234375 135.148438 186.574219 135.011719 C 186.871094 134.851562 186.871094 134.53125 186.597656 134.347656 C 186.117188 133.980469 185.140625 133.84375 184.914062 134.574219 C 184.707031 135.238281 185.890625 135.332031 186.253906 135.101562 C 186.484375 134.964844 186.574219 134.667969 186.4375 134.4375 C 186.253906 134.140625 185.867188 134.09375 185.574219 134.1875 C 185.34375 134.253906 185.003906 134.4375 184.980469 134.714844 C 184.957031 135.058594 185.324219 135.125 185.574219 135.148438 C 185.890625 135.171875 186.390625 135.101562 186.4375 134.691406 C 186.484375 134.347656 186.1875 134.1875 185.890625 134.1875 C 185.59375 134.1875 185.230469 134.394531 185.390625 134.738281 C 185.550781 135.082031 186.074219 134.851562 186.300781 134.738281 C 186.414062 134.667969 186.4375 134.53125 186.390625 134.414062 C 186.390625 134.394531 186.367188 134.394531 186.347656 134.371094 C 186.1875 134.210938 185.960938 134.117188 185.730469 134.140625 C 185.640625 134.140625 185.457031 134.1875 185.414062 134.277344 C 185.367188 134.371094 185.390625 134.347656 185.503906 134.347656 C 185.617188 134.347656 185.710938 134.277344 185.800781 134.277344 C 185.890625 134.277344 186.347656 134.277344 186.367188 134.414062 C 186.390625 134.507812 185.960938 134.484375 185.890625 134.484375 C 185.710938 134.484375 185.503906 134.484375 185.324219 134.484375 C 185.1875 134.484375 185.230469 134.460938 185.1875 134.554688 C 185.253906 134.4375 185.4375 134.253906 185.574219 134.277344 C 185.867188 134.324219 185.980469 133.890625 185.6875 133.84375 C 185.34375 133.796875 185.027344 133.957031 184.84375 134.253906 C 184.683594 134.484375 184.640625 134.757812 184.933594 134.898438 C 185.277344 135.082031 185.824219 134.988281 186.1875 134.941406 C 186.484375 134.917969 186.847656 134.828125 186.824219 134.4375 C 186.777344 133.707031 185.574219 133.660156 185.140625 134.027344 C 184.933594 134.1875 184.890625 134.460938 185.050781 134.667969 C 185.070312 134.691406 185.09375 134.714844 185.117188 134.738281 C 185.457031 135.011719 185.730469 134.414062 186.003906 134.691406 L 186.050781 134.324219 C 185.914062 134.394531 185.753906 134.4375 185.59375 134.414062 L 185.800781 134.53125 C 185.824219 134.621094 185.867188 134.644531 185.9375 134.621094 C 185.867188 134.644531 185.800781 134.644531 185.730469 134.667969 C 185.617188 134.667969 185.480469 134.621094 185.367188 134.644531 C 185.414062 134.714844 185.4375 134.714844 185.480469 134.667969 C 185.527344 134.644531 185.574219 134.621094 185.640625 134.597656 C 185.753906 134.554688 185.824219 134.597656 185.867188 134.738281 C 185.800781 134.757812 185.730469 134.757812 185.6875 134.757812 C 185.617188 134.757812 185.324219 134.738281 185.277344 134.644531 C 185.324219 134.738281 185.480469 134.554688 185.527344 134.53125 C 185.710938 134.460938 186.253906 134.53125 186.324219 134.757812 L 186.347656 134.574219 C 186.234375 134.78125 185.617188 134.757812 185.414062 134.714844 C 185.070312 134.644531 185.480469 134.484375 185.640625 134.4375 C 185.730469 134.414062 186.050781 134.414062 186.097656 134.507812 C 186.164062 134.644531 186.003906 134.691406 185.890625 134.714844 C 185.59375 134.804688 185.300781 134.757812 185.050781 134.597656 L 185.164062 134.851562 C 185.230469 134.484375 185.800781 134.460938 186.074219 134.597656 C 186.164062 134.644531 186.1875 134.621094 186.140625 134.667969 C 186.097656 134.714844 185.960938 134.691406 185.914062 134.714844 C 185.777344 134.738281 185.4375 134.851562 185.324219 134.804688 C 185.070312 134.714844 185.480469 134.621094 185.574219 134.597656 C 185.730469 134.574219 185.914062 134.574219 186.074219 134.621094 C 186.300781 134.691406 185.980469 134.738281 185.84375 134.757812 C 185.664062 134.78125 185.480469 134.757812 185.324219 134.667969 C 185.070312 134.554688 184.820312 134.941406 185.117188 135.058594 Z M 180.292969 184.378906 C 179.996094 186.734375 180.589844 189.117188 181.910156 191.0625 C 182.070312 191.3125 182.457031 191.085938 182.296875 190.832031 C 181 188.933594 180.453125 186.644531 180.75 184.378906 C 180.792969 184.078125 180.339844 184.078125 180.292969 184.378906 Z M 202.5 186.324219 C 201.160156 186.484375 199.792969 186.4375 198.453125 186.207031 C 197.222656 185.980469 196.109375 185.40625 194.902344 185.179688 C 193.261719 184.902344 191.945312 185.796875 191.328125 187.285156 C 190.738281 188.726562 190.804688 190.375 191.535156 191.773438 C 192.445312 193.421875 194.171875 193.785156 195.902344 193.96875 C 196.199219 193.992188 196.199219 193.535156 195.902344 193.511719 C 194.058594 193.308594 192.261719 192.824219 191.625 190.832031 C 191.148438 189.34375 191.375 187.398438 192.535156 186.253906 C 194.082031 184.742188 196.222656 186.140625 197.949219 186.527344 C 199.453125 186.871094 201 186.941406 202.523438 186.757812 C 202.796875 186.734375 202.796875 186.277344 202.5 186.324219 Z M 197.519531 170.203125 C 195.992188 169.289062 194.035156 167.546875 192.125 167.730469 C 190.691406 167.867188 190.054688 169.152344 189.917969 170.457031 C 189.554688 173.960938 192.082031 176.386719 195.492188 176.5 C 195.789062 176.5 195.789062 176.042969 195.492188 176.042969 C 192.671875 175.949219 190.328125 174.117188 190.351562 171.140625 C 190.375 169.242188 191.328125 167.664062 193.421875 168.394531 C 194.789062 168.851562 196.0625 169.859375 197.289062 170.59375 C 197.40625 170.660156 197.542969 170.617188 197.585938 170.5 C 197.65625 170.410156 197.632812 170.296875 197.519531 170.203125 Z M 157.539062 185.980469 C 158.019531 189.320312 159.246094 192.527344 161.113281 195.367188 C 161.269531 195.617188 161.660156 195.390625 161.5 195.136719 C 159.65625 192.34375 158.449219 189.183594 157.972656 185.867188 C 157.925781 185.566406 157.496094 185.703125 157.539062 185.980469 Z M 196.335938 193.71875 C 194.128906 196.488281 193.902344 200.359375 195.742188 203.382812 C 195.8125 203.472656 195.972656 203.496094 196.0625 203.425781 C 196.152344 203.359375 196.175781 203.242188 196.128906 203.152344 C 194.378906 200.3125 194.582031 196.671875 196.652344 194.039062 C 196.835938 193.808594 196.515625 193.488281 196.335938 193.71875 Z M 189.714844 203.632812 C 190.941406 200.496094 190.828125 196.992188 189.394531 193.925781 C 189.28125 193.648438 188.871094 193.902344 189.007812 194.152344 C 190.375 197.105469 190.464844 200.472656 189.28125 203.496094 C 189.167969 203.792969 189.601562 203.90625 189.714844 203.632812 Z M 209.007812 177.09375 C 210.691406 176.066406 212.398438 174.988281 213.355469 173.203125 C 213.492188 172.949219 213.105469 172.722656 212.96875 172.972656 C 212.035156 174.691406 210.398438 175.722656 208.78125 176.707031 C 208.691406 176.773438 208.667969 176.9375 208.734375 177.027344 C 208.78125 177.117188 208.894531 177.140625 209.007812 177.09375 Z M 164.910156 171.050781 C 166.074219 173.820312 167.9375 176.5 170.714844 177.828125 C 173.148438 178.996094 176.289062 179.019531 178.519531 177.347656 C 181.429688 175.125 178.792969 172.289062 177.402344 170.042969 C 175.402344 166.769531 174.285156 163.035156 173.171875 159.375 C 173.148438 159.257812 173.011719 159.191406 172.898438 159.214844 C 172.785156 159.234375 172.714844 159.375 172.738281 159.488281 C 173.582031 162.257812 174.402344 165.027344 175.628906 167.640625 C 176.265625 169.011719 177.039062 170.339844 177.925781 171.578125 C 178.929688 172.996094 180.269531 174.964844 178.769531 176.546875 C 176.722656 178.652344 173.125 178.5625 170.691406 177.277344 C 168.144531 175.925781 166.4375 173.433594 165.34375 170.820312 C 165.207031 170.546875 164.796875 170.777344 164.910156 171.050781 Z M 202.867188 159.214844 C 202.867188 158.183594 202.683594 156.625 201.386719 156.464844 C 200.113281 156.304688 199.65625 158 199.769531 158.984375 C 199.792969 159.28125 200.25 159.28125 200.226562 158.984375 C 200.136719 158.25 200.476562 156.554688 201.570312 156.96875 C 202.410156 157.289062 202.433594 158.433594 202.433594 159.191406 C 202.433594 159.328125 202.523438 159.417969 202.660156 159.417969 C 202.796875 159.417969 202.867188 159.328125 202.867188 159.214844 Z M 193.671875 159.28125 C 193.582031 158.410156 193.445312 156.695312 192.308594 156.554688 C 190.964844 156.375 190.691406 158.25 190.667969 159.214844 C 190.667969 159.351562 190.761719 159.441406 190.898438 159.441406 C 191.035156 159.441406 191.125 159.351562 191.125 159.214844 C 191.125 158.617188 191.375 156.511719 192.445312 157.082031 C 193.082031 157.425781 193.148438 158.6875 193.21875 159.28125 C 193.242188 159.578125 193.695312 159.578125 193.671875 159.28125 Z M 182.023438 137.300781 C 182.523438 138.195312 183.207031 139.5 184.433594 138.859375 C 185.664062 138.21875 185.84375 136.15625 185.9375 134.941406 L 185.480469 135.011719 C 185.867188 136.15625 186.234375 138.238281 187.6875 138.535156 C 189.144531 138.835938 189.941406 137.324219 190.238281 136.15625 C 190.261719 136.042969 190.191406 135.902344 190.078125 135.882812 C 189.964844 135.859375 189.828125 135.925781 189.804688 136.042969 C 189.464844 137.347656 188.054688 139.222656 186.847656 137.324219 C 186.414062 136.636719 186.210938 135.675781 185.9375 134.917969 C 185.914062 134.78125 185.800781 134.714844 185.6875 134.714844 C 185.550781 134.738281 185.480469 134.851562 185.480469 134.964844 C 185.4375 135.859375 185.253906 136.726562 184.914062 137.550781 C 184.570312 138.308594 184.09375 139.179688 182.886719 137.941406 C 182.707031 137.691406 182.546875 137.414062 182.410156 137.117188 C 182.339844 137.003906 182.203125 136.980469 182.089844 137.046875 C 181.976562 137.070312 181.953125 137.207031 182.023438 137.300781 Z M 191.125 124.617188 C 191.011719 126.21875 191.671875 128.851562 193.628906 129.058594 C 195.835938 129.285156 196.222656 126.449219 196.449219 124.890625 C 196.496094 124.59375 196.0625 124.480469 196.015625 124.777344 C 195.8125 126.128906 195.652344 128.601562 193.785156 128.578125 C 192.035156 128.554688 191.488281 126.035156 191.578125 124.640625 C 191.601562 124.320312 191.148438 124.320312 191.125 124.617188 Z M 178.972656 125.554688 C 179.085938 126.835938 179.519531 129.492188 177.675781 129.5625 C 176.175781 129.605469 175.175781 127.980469 174.96875 126.652344 C 174.921875 126.355469 174.492188 126.492188 174.535156 126.769531 C 174.765625 128.324219 176.0625 130.203125 177.835938 130.042969 C 179.976562 129.859375 179.566406 127.019531 179.429688 125.554688 C 179.40625 125.257812 178.953125 125.257812 178.972656 125.554688 " fill-opacity="1" fill-rule="nonzero"/><g fill="#eac3ae" fill-opacity="1"><g transform="translate(138.126672, 260.510227)"><g><path d="M 6.65625 0.203125 C 5.488281 0.203125 4.46875 -0.0507812 3.59375 -0.5625 C 2.71875 -1.082031 2.03125 -1.804688 1.53125 -2.734375 C 1.039062 -3.660156 0.796875 -4.726562 0.796875 -5.9375 C 0.796875 -7.15625 1.039062 -8.222656 1.53125 -9.140625 C 2.03125 -10.066406 2.71875 -10.789062 3.59375 -11.3125 C 4.46875 -11.832031 5.488281 -12.09375 6.65625 -12.09375 C 7.832031 -12.09375 8.859375 -11.832031 9.734375 -11.3125 C 10.617188 -10.789062 11.300781 -10.066406 11.78125 -9.140625 C 12.269531 -8.222656 12.515625 -7.15625 12.515625 -5.9375 C 12.515625 -4.726562 12.269531 -3.660156 11.78125 -2.734375 C 11.300781 -1.804688 10.617188 -1.082031 9.734375 -0.5625 C 8.859375 -0.0507812 7.832031 0.203125 6.65625 0.203125 Z M 6.65625 -1.046875 C 7.53125 -1.046875 8.296875 -1.238281 8.953125 -1.625 C 9.617188 -2.019531 10.132812 -2.582031 10.5 -3.3125 C 10.875 -4.050781 11.0625 -4.925781 11.0625 -5.9375 C 11.0625 -6.957031 10.875 -7.828125 10.5 -8.546875 C 10.132812 -9.273438 9.617188 -9.832031 8.953125 -10.21875 C 8.296875 -10.613281 7.53125 -10.8125 6.65625 -10.8125 C 5.78125 -10.8125 5.007812 -10.613281 4.34375 -10.21875 C 3.6875 -9.832031 3.175781 -9.273438 2.8125 -8.546875 C 2.445312 -7.828125 2.265625 -6.957031 2.265625 -5.9375 C 2.265625 -4.925781 2.445312 -4.050781 2.8125 -3.3125 C 3.175781 -2.582031 3.6875 -2.019531 4.34375 -1.625 C 5.007812 -1.238281 5.78125 -1.046875 6.65625 -1.046875 Z M 6.65625 -1.046875 "/></g></g></g><g fill="#eac3ae" fill-opacity="1"><g transform="translate(151.430153, 260.510227)"><g><path d="M 1.25 0 L 1.25 -11.890625 L 2.6875 -11.890625 L 9.015625 -2.359375 L 9.015625 -11.890625 L 10.453125 -11.890625 L 10.453125 0 L 9.015625 0 L 2.6875 -9.53125 L 2.6875 0 Z M 1.25 0 "/></g></g></g><g fill="#eac3ae" fill-opacity="1"><g transform="translate(163.121608, 260.510227)"><g><path d="M 1.25 0 L 1.25 -11.890625 L 4.90625 -11.890625 C 7 -11.890625 8.539062 -11.359375 9.53125 -10.296875 C 10.519531 -9.234375 11.015625 -7.769531 11.015625 -5.90625 C 11.015625 -4.082031 10.519531 -2.640625 9.53125 -1.578125 C 8.539062 -0.523438 7 0 4.90625 0 Z M 2.6875 -1.1875 L 4.875 -1.1875 C 6.03125 -1.1875 6.945312 -1.375 7.625 -1.75 C 8.3125 -2.132812 8.800781 -2.679688 9.09375 -3.390625 C 9.394531 -4.097656 9.546875 -4.9375 9.546875 -5.90625 C 9.546875 -6.90625 9.394531 -7.757812 9.09375 -8.46875 C 8.800781 -9.1875 8.3125 -9.738281 7.625 -10.125 C 6.945312 -10.507812 6.03125 -10.703125 4.875 -10.703125 L 2.6875 -10.703125 Z M 2.6875 -1.1875 "/></g></g></g><g fill="#eac3ae" fill-opacity="1"><g transform="translate(174.931841, 260.510227)"><g><path d="M 1.25 0 L 1.25 -11.890625 L 8.609375 -11.890625 L 8.609375 -10.71875 L 2.6875 -10.71875 L 2.6875 -6.578125 L 8.109375 -6.578125 L 8.109375 -5.421875 L 2.6875 -5.421875 L 2.6875 -1.171875 L 8.609375 -1.171875 L 8.609375 0 Z M 1.25 0 "/></g></g></g><g fill="#eac3ae" fill-opacity="1"><g transform="translate(184.502203, 260.510227)"><g><path d="M 1.25 0 L 1.25 -11.890625 L 2.921875 -11.890625 L 7.203125 -3.59375 L 11.453125 -11.890625 L 13.125 -11.890625 L 13.125 0 L 11.703125 0 L 11.703125 -9.34375 L 7.734375 -1.703125 L 6.65625 -1.703125 L 2.6875 -9.328125 L 2.6875 0 Z M 1.25 0 "/></g></g></g><g fill="#eac3ae" fill-opacity="1"><g transform="translate(198.87471, 260.510227)"><g><path d="M 0.515625 0 L 4.890625 -11.890625 L 6.40625 -11.890625 L 10.765625 0 L 9.25 0 L 8.171875 -3.0625 L 3.109375 -3.0625 L 2 0 Z M 3.53125 -4.21875 L 7.75 -4.21875 L 5.640625 -10.09375 Z M 3.53125 -4.21875 "/></g></g></g><g fill="#eac3ae" fill-opacity="1"><g transform="translate(210.141944, 260.510227)"><g><path d="M 1.25 0 L 1.25 -11.890625 L 2.6875 -11.890625 L 9.015625 -2.359375 L 9.015625 -11.890625 L 10.453125 -11.890625 L 10.453125 0 L 9.015625 0 L 2.6875 -9.53125 L 2.6875 0 Z M 1.25 0 "/></g></g></g><g fill="#eac3ae" fill-opacity="1"><g transform="translate(221.833399, 260.510227)"><g><path d="M 1.25 0 L 1.25 -11.890625 L 4.90625 -11.890625 C 7 -11.890625 8.539062 -11.359375 9.53125 -10.296875 C 10.519531 -9.234375 11.015625 -7.769531 11.015625 -5.90625 C 11.015625 -4.082031 10.519531 -2.640625 9.53125 -1.578125 C 8.539062 -0.523438 7 0 4.90625 0 Z M 2.6875 -1.1875 L 4.875 -1.1875 C 6.03125 -1.1875 6.945312 -1.375 7.625 -1.75 C 8.3125 -2.132812 8.800781 -2.679688 9.09375 -3.390625 C 9.394531 -4.097656 9.546875 -4.9375 9.546875 -5.90625 C 9.546875 -6.90625 9.394531 -7.757812 9.09375 -8.46875 C 8.800781 -9.1875 8.3125 -9.738281 7.625 -10.125 C 6.945312 -10.507812 6.03125 -10.703125 4.875 -10.703125 L 2.6875 -10.703125 Z M 2.6875 -1.1875 "/></g></g></g><g fill="#e6829c" fill-opacity="1"><g transform="translate(111.35414, 230.832476)"><g><path d="M 10.269531 -17.320312 L 10.066406 -17.320312 C 3.628906 -17.320312 0.640625 -10.476562 0.640625 -3.628906 C 0.640625 3.148438 3.582031 9.949219 9.039062 10.042969 C 13.851562 9.949219 15.292969 6.277344 15.382812 4.839844 L 15.382812 4.746094 C 15.382812 3.8125 14.605469 3.332031 13.785156 3.332031 C 12.964844 3.332031 12.140625 3.8125 12.050781 4.792969 C 11.867188 7.347656 10.40625 8.035156 9.265625 8.035156 L 9.199219 8.035156 C 6.847656 7.988281 5.636719 2.601562 5.636719 -3.011719 C 5.636719 -9.128906 7.074219 -15.519531 9.996094 -15.542969 L 10.019531 -15.542969 C 12.210938 -15.542969 12.621094 -12.4375 12.621094 -9.21875 C 12.621094 -8.078125 12.574219 -6.914062 12.53125 -5.886719 L 12.53125 -5.683594 C 12.53125 -3.925781 13.417969 -3.21875 14.402344 -3.21875 C 15.566406 -3.21875 16.886719 -4.199219 17.027344 -5.570312 C 17.09375 -6.207031 17.140625 -6.890625 17.140625 -7.554688 C 17.140625 -12.300781 15.269531 -17.207031 10.269531 -17.320312 Z M 10.269531 -17.320312 "/></g></g></g><g fill="#e6829c" fill-opacity="1"><g transform="translate(129.44852, 230.832476)"><g><path d="M 5.089844 4.882812 C 5.066406 4.519531 5.042969 3.992188 5.042969 3.46875 C 5.042969 2.191406 5.113281 0.777344 5.113281 0.617188 C 5.113281 0.410156 5.226562 0.136719 5.386719 0.0234375 C 5.910156 -0.296875 6.640625 -0.410156 7.347656 -0.410156 C 8.558594 -0.410156 9.722656 -0.046875 9.722656 0.363281 L 9.722656 0.386719 C 9.746094 0.777344 9.746094 1.140625 9.746094 1.484375 C 9.746094 2.714844 9.652344 3.695312 9.632812 4.976562 C 9.699219 5.613281 10.15625 5.886719 10.636719 5.886719 C 11.34375 5.886719 12.140625 5.363281 12.1875 4.566406 C 12.394531 3.035156 12.550781 0.84375 12.550781 -1.507812 C 12.550781 -6.480469 11.867188 -12.234375 9.492188 -14.355469 C 8.878906 -14.925781 8.101562 -15.175781 7.324219 -15.175781 C 6.503906 -15.175781 5.660156 -14.855469 5 -14.265625 C 2.601562 -12.050781 0.707031 -5.636719 0.707031 0.25 C 0.707031 1.804688 0.84375 3.308594 1.117188 4.703125 C 1.347656 5.820312 2.214844 6.300781 3.082031 6.300781 C 3.972656 6.300781 4.882812 5.773438 5.089844 4.882812 Z M 6.753906 -11.410156 C 6.984375 -11.890625 7.394531 -12.097656 7.804688 -12.097656 C 8.261719 -12.097656 8.695312 -11.867188 8.945312 -11.523438 C 9.746094 -10.15625 9.972656 -6.34375 9.972656 -3.558594 C 9.972656 -3.035156 9.972656 -2.554688 9.949219 -2.144531 C 9.949219 -2.007812 9.882812 -1.917969 9.789062 -1.917969 C 9.769531 -1.917969 9.722656 -1.941406 9.699219 -1.941406 C 9.492188 -1.960938 9.015625 -1.984375 8.421875 -1.984375 C 7.394531 -1.984375 6.070312 -1.941406 5.636719 -1.917969 C 5.410156 -1.917969 5.292969 -1.917969 5.292969 -2.191406 L 5.292969 -2.648438 C 5.292969 -4.882812 5.636719 -9.21875 6.753906 -11.410156 Z M 6.753906 -11.410156 "/></g></g></g><g fill="#e6829c" fill-opacity="1"><g transform="translate(143.367272, 230.832476)"><g><path d="M 7.621094 -16.339844 C 7.394531 -17.824219 5.886719 -18.691406 4.40625 -18.691406 C 2.988281 -18.691406 1.574219 -17.894531 1.277344 -16.042969 C 0.914062 -13.851562 0.730469 -9.058594 0.730469 -4.152344 C 0.730469 1.757812 1.003906 7.804688 1.550781 9.539062 C 1.847656 10.476562 3.105469 11.183594 4.199219 11.183594 C 5.019531 11.183594 5.726562 10.796875 5.886719 9.789062 C 5.933594 9.425781 6.207031 2.238281 6.253906 1.871094 C 7.1875 2.121094 9.5625 2.488281 11.753906 6.9375 C 12.117188 7.691406 12.828125 8.148438 13.578125 8.148438 C 13.832031 8.148438 14.082031 8.078125 14.308594 7.988281 C 15.292969 7.578125 15.746094 7.097656 15.746094 6.367188 C 15.746094 6.09375 15.679688 5.796875 15.566406 5.453125 C 14.605469 2.511719 11.957031 1.164062 11.867188 0.957031 C 14.5625 -0.320312 16.363281 -2.96875 16.683594 -7.324219 C 16.730469 -7.898438 16.75 -8.445312 16.75 -8.96875 C 16.75 -13.96875 14.699219 -16.933594 10.796875 -17.414062 C 10.613281 -17.4375 10.453125 -17.4375 10.292969 -17.4375 C 9.265625 -17.4375 8.285156 -17.09375 7.621094 -16.339844 Z M 9.199219 -15.152344 C 9.472656 -15.246094 9.722656 -15.269531 9.949219 -15.269531 C 12.117188 -15.269531 13.03125 -12.003906 13.03125 -8.742188 C 13.03125 -8.148438 13.007812 -7.554688 12.941406 -6.984375 C 12.597656 -3.582031 11.207031 0.046875 8.332031 0.046875 C 7.875 0.046875 7.394531 -0.046875 6.871094 -0.226562 C 6.664062 -0.296875 6.574219 -0.410156 6.574219 -0.617188 L 6.574219 -0.730469 C 7.121094 -8.421875 7.324219 -12.871094 7.578125 -13.832031 C 7.78125 -14.582031 8.582031 -14.949219 9.199219 -15.152344 Z M 9.199219 -15.152344 "/></g></g></g><g fill="#e6829c" fill-opacity="1"><g transform="translate(160.54895, 230.832476)"><g><path d="M 4.632812 6.09375 C 4.882812 5.707031 5.660156 -5.476562 5.660156 -11.800781 C 5.660156 -13.238281 5.613281 -14.421875 5.523438 -15.175781 C 5.386719 -16.113281 4.175781 -16.867188 3.011719 -16.867188 C 2.078125 -16.867188 1.1875 -16.386719 0.914062 -15.085938 C 0.730469 -13.738281 0.660156 -11.890625 0.660156 -9.835938 C 0.660156 -3.105469 1.4375 5.773438 1.78125 6.253906 C 2.191406 6.777344 2.671875 7.007812 3.125 7.007812 C 3.71875 7.007812 4.289062 6.640625 4.632812 6.09375 Z M 4.632812 6.09375 "/></g></g></g><g fill="#e6829c" fill-opacity="1"><g transform="translate(167.097609, 230.832476)"><g><path d="M 13.785156 -14.949219 C 13.144531 -11.980469 12.597656 1.050781 12.574219 1.074219 C 10.339844 -4.839844 8.605469 -9.746094 6.277344 -14.378906 C 5.570312 -15.792969 4.703125 -16.273438 3.925781 -16.273438 C 2.785156 -16.273438 1.804688 -15.246094 1.621094 -14.605469 C 0.980469 -12.324219 0.640625 -8.332031 0.640625 -4.246094 C 0.640625 0.226562 1.050781 4.816406 1.871094 7.507812 C 2.144531 8.582031 2.898438 9.21875 3.652344 9.21875 C 4.246094 9.21875 4.859375 8.808594 5.273438 7.875 C 6.320312 5.386719 6.4375 -7.554688 6.527344 -8.191406 C 7.234375 -7.644531 10.222656 5.113281 13.96875 5.523438 L 14.148438 5.523438 C 17.4375 5.523438 18.417969 -4.929688 18.417969 -11.046875 C 18.417969 -12.871094 18.328125 -14.332031 18.191406 -14.996094 C 17.914062 -16.316406 16.933594 -17.046875 15.953125 -17.046875 C 15.039062 -17.046875 14.105469 -16.386719 13.785156 -14.949219 Z M 10.910156 -18.097656 C 10.863281 -17.984375 10.816406 -17.894531 10.75 -17.800781 L 10.613281 -17.664062 C 10.542969 -17.734375 10.40625 -17.800781 10.316406 -17.871094 L 10.042969 -18.074219 C 9.652344 -18.371094 9.199219 -18.554688 8.71875 -18.554688 C 8.648438 -18.554688 8.558594 -18.53125 8.488281 -18.53125 C 8.054688 -18.484375 7.53125 -18.304688 7.347656 -17.847656 C 7.304688 -17.753906 7.304688 -17.6875 7.304688 -17.617188 C 7.304688 -17.300781 7.644531 -17.207031 7.988281 -17.207031 L 8.148438 -17.207031 C 8.308594 -17.230469 8.582031 -17.320312 8.582031 -17.503906 L 8.582031 -17.527344 C 8.558594 -17.574219 8.535156 -17.597656 8.511719 -17.640625 C 8.511719 -17.753906 8.625 -17.960938 8.71875 -17.984375 C 8.71875 -17.9375 8.855469 -17.871094 8.878906 -17.847656 C 8.96875 -17.800781 9.039062 -17.734375 9.105469 -17.664062 C 9.425781 -17.414062 9.722656 -17.207031 10.109375 -17.117188 C 10.269531 -17.070312 10.453125 -17.046875 10.613281 -17.046875 C 11.25 -17.046875 11.820312 -17.34375 12.097656 -17.960938 C 12.097656 -17.984375 12.117188 -18.007812 12.117188 -18.03125 C 12.117188 -18.210938 11.800781 -18.304688 11.480469 -18.304688 C 11.230469 -18.304688 10.976562 -18.234375 10.910156 -18.097656 Z M 10.910156 -18.097656 "/></g></g></g><g fill="#e6829c" fill-opacity="1"><g transform="translate(186.173145, 230.832476)"><g><path d="M 5.363281 5.136719 L 5.453125 5.136719 C 9.882812 5.136719 12.050781 -0.320312 12.050781 -5.546875 C 12.050781 -10.316406 10.246094 -14.878906 6.664062 -14.972656 L 6.527344 -14.972656 C 2.257812 -14.972656 0.363281 -9.8125 0.363281 -4.722656 C 0.363281 0.207031 2.144531 5.089844 5.363281 5.136719 Z M 5.339844 -11.84375 C 6.800781 -11.800781 7.464844 -8.902344 7.464844 -5.820312 C 7.464844 -2.238281 6.574219 1.621094 5.019531 1.621094 L 4.976562 1.621094 C 3.355469 1.550781 2.648438 -1.230469 2.648438 -4.246094 C 2.648438 -7.875 3.675781 -11.84375 5.316406 -11.84375 Z M 5.339844 -11.84375 "/></g></g></g><g fill="#e6829c" fill-opacity="1"><g transform="translate(198.88256, 230.832476)"><g><path d="M 7.210938 -15.449219 L 6.984375 -15.449219 C 3.242188 -15.449219 0.046875 -10.519531 0.046875 -5.523438 C 0.046875 -4.152344 0.296875 -2.761719 0.84375 -1.460938 C 2.921875 3.355469 8.671875 2.257812 8.742188 4.40625 L 8.742188 4.425781 C 8.742188 5.179688 7.554688 5.796875 6.871094 5.820312 L 6.734375 5.820312 C 4.859375 5.820312 5.042969 3.628906 3.242188 3.628906 C 3.082031 3.628906 2.898438 3.652344 2.691406 3.695312 C 2.214844 3.789062 1.941406 4.222656 1.941406 4.792969 C 1.941406 5.957031 3.148438 7.691406 6.117188 7.917969 L 6.414062 7.917969 C 8.445312 7.917969 10.886719 6.367188 10.886719 4.359375 C 10.839844 -0.160156 4.769531 1.140625 3.628906 -5.957031 C 3.582031 -6.207031 3.558594 -6.640625 3.558594 -7.144531 C 3.558594 -8.945312 3.972656 -11.890625 6.023438 -12.804688 C 6.230469 -12.894531 6.390625 -12.941406 6.550781 -12.941406 C 7.578125 -12.941406 7.757812 -11.136719 7.757812 -9.105469 C 7.757812 -8.054688 7.714844 -6.914062 7.714844 -5.957031 C 7.714844 -5.292969 7.738281 -4.722656 7.804688 -4.3125 C 7.988281 -3.332031 8.605469 -2.921875 9.242188 -2.921875 C 9.8125 -2.921875 10.40625 -3.242188 10.773438 -3.765625 C 11.503906 -4.816406 11.957031 -6.664062 11.957031 -8.582031 C 11.957031 -11.820312 10.65625 -15.246094 7.210938 -15.449219 Z M 7.210938 -15.449219 "/></g></g></g><g fill="#e6829c" fill-opacity="1"><g transform="translate(211.500705, 230.832476)"><g><path d="M 4.632812 6.09375 C 4.882812 5.707031 5.660156 -5.476562 5.660156 -11.800781 C 5.660156 -13.238281 5.613281 -14.421875 5.523438 -15.175781 C 5.386719 -16.113281 4.175781 -16.867188 3.011719 -16.867188 C 2.078125 -16.867188 1.1875 -16.386719 0.914062 -15.085938 C 0.730469 -13.738281 0.660156 -11.890625 0.660156 -9.835938 C 0.660156 -3.105469 1.4375 5.773438 1.78125 6.253906 C 2.191406 6.777344 2.671875 7.007812 3.125 7.007812 C 3.71875 7.007812 4.289062 6.640625 4.632812 6.09375 Z M 4.632812 6.09375 "/></g></g></g><g fill="#e6829c" fill-opacity="1"><g transform="translate(218.049365, 230.832476)"><g><path d="M 19.058594 -15.3125 C 18.03125 -15.90625 13.601562 -16.5 9.152344 -16.5 C 6.160156 -16.5 3.171875 -16.226562 1.210938 -15.496094 C 0.707031 -15.3125 0.457031 -14.878906 0.457031 -14.421875 C 0.457031 -13.921875 0.777344 -13.417969 1.460938 -13.214844 C 1.871094 -13.101562 5.589844 -12.164062 7.257812 -12.164062 C 7.050781 -9.175781 6.960938 -6.34375 6.960938 -3.789062 C 6.960938 4.0625 7.757812 9.492188 8.308594 10.019531 C 8.511719 10.636719 9.105469 10.886719 9.746094 10.886719 C 10.5 10.886719 11.296875 10.542969 11.410156 10.109375 C 12.1875 7.441406 13.28125 -1.734375 13.28125 -8.351562 C 13.28125 -9.789062 13.238281 -11.113281 13.121094 -12.210938 C 14.515625 -12.347656 17.960938 -12.984375 18.988281 -13.417969 C 19.375 -13.601562 19.605469 -13.988281 19.605469 -14.378906 C 19.605469 -14.742188 19.445312 -15.085938 19.058594 -15.3125 Z M 19.058594 -15.3125 "/></g></g></g><g fill="#e6829c" fill-opacity="1"><g transform="translate(238.31142, 230.832476)"><g><path d="M 5.363281 5.136719 L 5.453125 5.136719 C 9.882812 5.136719 12.050781 -0.320312 12.050781 -5.546875 C 12.050781 -10.316406 10.246094 -14.878906 6.664062 -14.972656 L 6.527344 -14.972656 C 2.257812 -14.972656 0.363281 -9.8125 0.363281 -4.722656 C 0.363281 0.207031 2.144531 5.089844 5.363281 5.136719 Z M 5.339844 -11.84375 C 6.800781 -11.800781 7.464844 -8.902344 7.464844 -5.820312 C 7.464844 -2.238281 6.574219 1.621094 5.019531 1.621094 L 4.976562 1.621094 C 3.355469 1.550781 2.648438 -1.230469 2.648438 -4.246094 C 2.648438 -7.875 3.675781 -11.84375 5.316406 -11.84375 Z M 5.339844 -11.84375 "/></g></g></g><g fill="#e6829c" fill-opacity="1"><g transform="translate(251.020835, 230.832476)"><g><path d="M 7.210938 -15.449219 L 6.984375 -15.449219 C 3.242188 -15.449219 0.046875 -10.519531 0.046875 -5.523438 C 0.046875 -4.152344 0.296875 -2.761719 0.84375 -1.460938 C 2.921875 3.355469 8.671875 2.257812 8.742188 4.40625 L 8.742188 4.425781 C 8.742188 5.179688 7.554688 5.796875 6.871094 5.820312 L 6.734375 5.820312 C 4.859375 5.820312 5.042969 3.628906 3.242188 3.628906 C 3.082031 3.628906 2.898438 3.652344 2.691406 3.695312 C 2.214844 3.789062 1.941406 4.222656 1.941406 4.792969 C 1.941406 5.957031 3.148438 7.691406 6.117188 7.917969 L 6.414062 7.917969 C 8.445312 7.917969 10.886719 6.367188 10.886719 4.359375 C 10.839844 -0.160156 4.769531 1.140625 3.628906 -5.957031 C 3.582031 -6.207031 3.558594 -6.640625 3.558594 -7.144531 C 3.558594 -8.945312 3.972656 -11.890625 6.023438 -12.804688 C 6.230469 -12.894531 6.390625 -12.941406 6.550781 -12.941406 C 7.578125 -12.941406 7.757812 -11.136719 7.757812 -9.105469 C 7.757812 -8.054688 7.714844 -6.914062 7.714844 -5.957031 C 7.714844 -5.292969 7.738281 -4.722656 7.804688 -4.3125 C 7.988281 -3.332031 8.605469 -2.921875 9.242188 -2.921875 C 9.8125 -2.921875 10.40625 -3.242188 10.773438 -3.765625 C 11.503906 -4.816406 11.957031 -6.664062 11.957031 -8.582031 C 11.957031 -11.820312 10.65625 -15.246094 7.210938 -15.449219 Z M 7.210938 -15.449219 "/></g></g></g></svg>