<svg xmlns="http://www.w3.org/2000/svg" xmlns:xlink="http://www.w3.org/1999/xlink" width="500" zoomAndPan="magnify" viewBox="0 0 375 187.499995" height="250" preserveAspectRatio="xMidYMid meet" version="1.0"><defs><g/></defs><g fill="#e6829c" fill-opacity="1"><g transform="translate(90.622842, 160.502252)"><g><path d="M 13.5 0.40625 C 11.132812 0.40625 9.0625 -0.113281 7.28125 -1.15625 C 5.5 -2.195312 4.109375 -3.660156 3.109375 -5.546875 C 2.117188 -7.429688 1.625 -9.597656 1.625 -12.046875 C 1.625 -14.503906 2.117188 -16.664062 3.109375 -18.53125 C 4.109375 -20.40625 5.5 -21.867188 7.28125 -22.921875 C 9.0625 -23.984375 11.132812 -24.515625 13.5 -24.515625 C 15.882812 -24.515625 17.96875 -23.984375 19.75 -22.921875 C 21.53125 -21.867188 22.910156 -20.40625 23.890625 -18.53125 C 24.878906 -16.664062 25.375 -14.503906 25.375 -12.046875 C 25.375 -9.597656 24.878906 -7.429688 23.890625 -5.546875 C 22.910156 -3.660156 21.53125 -2.195312 19.75 -1.15625 C 17.96875 -0.113281 15.882812 0.40625 13.5 0.40625 Z M 13.5 -2.140625 C 15.269531 -2.140625 16.828125 -2.535156 18.171875 -3.328125 C 19.515625 -4.117188 20.554688 -5.253906 21.296875 -6.734375 C 22.046875 -8.210938 22.421875 -9.984375 22.421875 -12.046875 C 22.421875 -14.117188 22.046875 -15.890625 21.296875 -17.359375 C 20.554688 -18.828125 19.515625 -19.957031 18.171875 -20.75 C 16.828125 -21.539062 15.269531 -21.9375 13.5 -21.9375 C 11.726562 -21.9375 10.171875 -21.539062 8.828125 -20.75 C 7.484375 -19.957031 6.4375 -18.828125 5.6875 -17.359375 C 4.945312 -15.890625 4.578125 -14.117188 4.578125 -12.046875 C 4.578125 -9.984375 4.945312 -8.210938 5.6875 -6.734375 C 6.4375 -5.253906 7.484375 -4.117188 8.828125 -3.328125 C 10.171875 -2.535156 11.726562 -2.140625 13.5 -2.140625 Z M 13.5 -2.140625 "/></g></g></g><g fill="#e6829c" fill-opacity="1"><g transform="translate(117.608134, 160.502252)"><g><path d="M 2.546875 0 L 2.546875 -24.109375 L 5.4375 -24.109375 L 18.28125 -4.78125 L 18.28125 -24.109375 L 21.171875 -24.109375 L 21.171875 0 L 18.28125 0 L 5.4375 -19.3125 L 5.4375 0 Z M 2.546875 0 "/></g></g></g><g fill="#e6829c" fill-opacity="1"><g transform="translate(141.323528, 160.502252)"><g><path d="M 2.546875 0 L 2.546875 -24.109375 L 9.953125 -24.109375 C 14.203125 -24.109375 17.328125 -23.023438 19.328125 -20.859375 C 21.335938 -18.703125 22.34375 -15.742188 22.34375 -11.984375 C 22.34375 -8.285156 21.335938 -5.363281 19.328125 -3.21875 C 17.328125 -1.070312 14.203125 0 9.953125 0 Z M 5.4375 -2.40625 L 9.890625 -2.40625 C 12.222656 -2.40625 14.082031 -2.789062 15.46875 -3.5625 C 16.863281 -4.332031 17.859375 -5.429688 18.453125 -6.859375 C 19.054688 -8.296875 19.359375 -10.003906 19.359375 -11.984375 C 19.359375 -14.003906 19.054688 -15.738281 18.453125 -17.1875 C 17.859375 -18.632812 16.863281 -19.75 15.46875 -20.53125 C 14.082031 -21.3125 12.222656 -21.703125 9.890625 -21.703125 L 5.4375 -21.703125 Z M 5.4375 -2.40625 "/></g></g></g><g fill="#e6829c" fill-opacity="1"><g transform="translate(165.279864, 160.502252)"><g><path d="M 2.546875 0 L 2.546875 -24.109375 L 17.453125 -24.109375 L 17.453125 -21.734375 L 5.4375 -21.734375 L 5.4375 -13.328125 L 16.421875 -13.328125 L 16.421875 -10.984375 L 5.4375 -10.984375 L 5.4375 -2.375 L 17.453125 -2.375 L 17.453125 0 Z M 2.546875 0 "/></g></g></g><g fill="#e6829c" fill-opacity="1"><g transform="translate(184.692756, 160.502252)"><g><path d="M 2.546875 0 L 2.546875 -24.109375 L 5.921875 -24.109375 L 14.59375 -7.296875 L 23.203125 -24.109375 L 26.625 -24.109375 L 26.625 0 L 23.734375 0 L 23.734375 -18.9375 L 15.671875 -3.4375 L 13.5 -3.4375 L 5.4375 -18.90625 L 5.4375 0 Z M 2.546875 0 "/></g></g></g><g fill="#e6829c" fill-opacity="1"><g transform="translate(213.846506, 160.502252)"><g><path d="M 1.03125 0 L 9.921875 -24.109375 L 12.984375 -24.109375 L 21.828125 0 L 18.765625 0 L 16.5625 -6.203125 L 6.296875 -6.203125 L 4.0625 0 Z M 7.15625 -8.546875 L 15.703125 -8.546875 L 11.4375 -20.453125 Z M 7.15625 -8.546875 "/></g></g></g><g fill="#e6829c" fill-opacity="1"><g transform="translate(236.701402, 160.502252)"><g><path d="M 2.546875 0 L 2.546875 -24.109375 L 5.4375 -24.109375 L 18.28125 -4.78125 L 18.28125 -24.109375 L 21.171875 -24.109375 L 21.171875 0 L 18.28125 0 L 5.4375 -19.3125 L 5.4375 0 Z M 2.546875 0 "/></g></g></g><g fill="#e6829c" fill-opacity="1"><g transform="translate(260.416796, 160.502252)"><g><path d="M 2.546875 0 L 2.546875 -24.109375 L 9.953125 -24.109375 C 14.203125 -24.109375 17.328125 -23.023438 19.328125 -20.859375 C 21.335938 -18.703125 22.34375 -15.742188 22.34375 -11.984375 C 22.34375 -8.285156 21.335938 -5.363281 19.328125 -3.21875 C 17.328125 -1.070312 14.203125 0 9.953125 0 Z M 5.4375 -2.40625 L 9.890625 -2.40625 C 12.222656 -2.40625 14.082031 -2.789062 15.46875 -3.5625 C 16.863281 -4.332031 17.859375 -5.429688 18.453125 -6.859375 C 19.054688 -8.296875 19.359375 -10.003906 19.359375 -11.984375 C 19.359375 -14.003906 19.054688 -15.738281 18.453125 -17.1875 C 17.859375 -18.632812 16.863281 -19.75 15.46875 -20.53125 C 14.082031 -21.3125 12.222656 -21.703125 9.890625 -21.703125 L 5.4375 -21.703125 Z M 5.4375 -2.40625 "/></g></g></g><g fill="#eac3ae" fill-opacity="1"><g transform="translate(36.364989, 99.915343)"><g><path d="M 20.824219 -35.125 L 20.410156 -35.125 C 7.359375 -35.125 1.296875 -21.242188 1.296875 -7.359375 C 1.296875 6.386719 7.265625 20.175781 18.328125 20.363281 C 28.089844 20.175781 31.007812 12.726562 31.191406 9.8125 L 31.191406 9.625 C 31.191406 7.730469 29.617188 6.757812 27.953125 6.757812 C 26.285156 6.757812 24.621094 7.730469 24.433594 9.71875 C 24.066406 14.902344 21.101562 16.289062 18.789062 16.289062 L 18.652344 16.289062 C 13.882812 16.199219 11.429688 5.277344 11.429688 -6.109375 C 11.429688 -18.511719 14.347656 -31.46875 20.269531 -31.515625 L 20.316406 -31.515625 C 24.757812 -31.515625 25.59375 -25.222656 25.59375 -18.695312 C 25.59375 -16.382812 25.5 -14.023438 25.40625 -11.941406 L 25.40625 -11.523438 C 25.40625 -7.960938 27.210938 -6.523438 29.203125 -6.523438 C 31.5625 -6.523438 34.246094 -8.515625 34.523438 -11.292969 C 34.664062 -12.589844 34.753906 -13.976562 34.753906 -15.320312 C 34.753906 -24.945312 30.960938 -34.894531 20.824219 -35.125 Z M 20.824219 -35.125 "/></g></g></g><g fill="#eac3ae" fill-opacity="1"><g transform="translate(73.057994, 99.915343)"><g><path d="M 10.320312 9.902344 C 10.273438 9.164062 10.226562 8.097656 10.226562 7.035156 C 10.226562 4.441406 10.367188 1.574219 10.367188 1.25 C 10.367188 0.832031 10.597656 0.277344 10.921875 0.046875 C 11.984375 -0.601562 13.46875 -0.832031 14.902344 -0.832031 C 17.355469 -0.832031 19.714844 -0.09375 19.714844 0.742188 L 19.714844 0.785156 C 19.761719 1.574219 19.761719 2.3125 19.761719 3.007812 C 19.761719 5.507812 19.574219 7.496094 19.53125 10.089844 C 19.667969 11.382812 20.59375 11.941406 21.566406 11.941406 C 23 11.941406 24.621094 10.875 24.714844 9.253906 C 25.128906 6.15625 25.453125 1.710938 25.453125 -3.054688 C 25.453125 -13.144531 24.066406 -24.804688 19.253906 -29.109375 C 18.003906 -30.265625 16.429688 -30.777344 14.855469 -30.777344 C 13.191406 -30.777344 11.476562 -30.128906 10.136719 -28.925781 C 5.277344 -24.433594 1.433594 -11.429688 1.433594 0.507812 C 1.433594 3.65625 1.710938 6.710938 2.269531 9.535156 C 2.730469 11.800781 4.488281 12.773438 6.246094 12.773438 C 8.050781 12.773438 9.902344 11.707031 10.320312 9.902344 Z M 13.699219 -23.140625 C 14.160156 -24.113281 14.996094 -24.527344 15.828125 -24.527344 C 16.753906 -24.527344 17.632812 -24.066406 18.140625 -23.371094 C 19.761719 -20.59375 20.222656 -12.867188 20.222656 -7.21875 C 20.222656 -6.15625 20.222656 -5.183594 20.175781 -4.351562 C 20.175781 -4.074219 20.039062 -3.886719 19.855469 -3.886719 C 19.808594 -3.886719 19.714844 -3.933594 19.667969 -3.933594 C 19.253906 -3.980469 18.28125 -4.027344 17.078125 -4.027344 C 14.996094 -4.027344 12.308594 -3.933594 11.429688 -3.886719 C 10.96875 -3.886719 10.738281 -3.886719 10.738281 -4.441406 L 10.738281 -5.367188 C 10.738281 -9.902344 11.429688 -18.695312 13.699219 -23.140625 Z M 13.699219 -23.140625 "/></g></g></g><g fill="#eac3ae" fill-opacity="1"><g transform="translate(101.283391, 99.915343)"><g><path d="M 15.457031 -33.136719 C 14.996094 -36.144531 11.941406 -37.902344 8.933594 -37.902344 C 6.0625 -37.902344 3.191406 -36.28125 2.589844 -32.535156 C 1.851562 -28.089844 1.480469 -18.371094 1.480469 -8.421875 C 1.480469 3.5625 2.035156 15.828125 3.148438 19.34375 C 3.75 21.242188 6.292969 22.675781 8.515625 22.675781 C 10.179688 22.675781 11.617188 21.890625 11.941406 19.855469 C 12.03125 19.113281 12.589844 4.535156 12.679688 3.792969 C 14.578125 4.304688 19.390625 5.042969 23.832031 14.070312 C 24.574219 15.597656 26.007812 16.523438 27.535156 16.523438 C 28.046875 16.523438 28.554688 16.382812 29.015625 16.199219 C 31.007812 15.363281 31.933594 14.394531 31.933594 12.910156 C 31.933594 12.355469 31.792969 11.753906 31.5625 11.0625 C 29.617188 5.089844 24.25 2.359375 24.066406 1.945312 C 29.527344 -0.648438 33.183594 -6.015625 33.828125 -14.855469 C 33.921875 -16.011719 33.96875 -17.125 33.96875 -18.1875 C 33.96875 -28.324219 29.804688 -34.339844 21.890625 -35.3125 C 21.519531 -35.355469 21.195312 -35.355469 20.871094 -35.355469 C 18.789062 -35.355469 16.800781 -34.664062 15.457031 -33.136719 Z M 18.652344 -30.730469 C 19.207031 -30.914062 19.714844 -30.960938 20.175781 -30.960938 C 24.574219 -30.960938 26.425781 -24.34375 26.425781 -17.726562 C 26.425781 -16.523438 26.378906 -15.320312 26.242188 -14.160156 C 25.546875 -7.265625 22.722656 0.09375 16.890625 0.09375 C 15.964844 0.09375 14.996094 -0.09375 13.929688 -0.460938 C 13.511719 -0.601562 13.328125 -0.832031 13.328125 -1.25 L 13.328125 -1.480469 C 14.4375 -17.078125 14.855469 -26.101562 15.363281 -28.046875 C 15.78125 -29.574219 17.402344 -30.3125 18.652344 -30.730469 Z M 18.652344 -30.730469 "/></g></g></g><g fill="#eac3ae" fill-opacity="1"><g transform="translate(136.125558, 99.915343)"><g><path d="M 9.394531 12.355469 C 9.902344 11.570312 11.476562 -11.105469 11.476562 -23.925781 C 11.476562 -26.84375 11.382812 -29.25 11.199219 -30.777344 C 10.921875 -32.671875 8.46875 -34.199219 6.109375 -34.199219 C 4.210938 -34.199219 2.40625 -33.226562 1.851562 -30.589844 C 1.480469 -27.859375 1.34375 -24.113281 1.34375 -19.945312 C 1.34375 -6.292969 2.914062 11.707031 3.609375 12.679688 C 4.441406 13.746094 5.414062 14.207031 6.339844 14.207031 C 7.542969 14.207031 8.699219 13.46875 9.394531 12.355469 Z M 9.394531 12.355469 "/></g></g></g><g fill="#eac3ae" fill-opacity="1"><g transform="translate(149.405368, 99.915343)"><g><path d="M 27.953125 -30.3125 C 26.65625 -24.296875 25.546875 2.128906 25.5 2.175781 C 20.964844 -9.8125 17.445312 -19.761719 12.726562 -29.15625 C 11.292969 -32.023438 9.535156 -32.996094 7.960938 -32.996094 C 5.644531 -32.996094 3.65625 -30.914062 3.285156 -29.617188 C 1.988281 -24.992188 1.296875 -16.890625 1.296875 -8.609375 C 1.296875 0.460938 2.128906 9.765625 3.792969 15.226562 C 4.351562 17.402344 5.878906 18.695312 7.40625 18.695312 C 8.609375 18.695312 9.859375 17.863281 10.691406 15.964844 C 12.820312 10.921875 13.050781 -15.320312 13.234375 -16.613281 C 14.671875 -15.503906 20.734375 10.367188 28.324219 11.199219 L 28.691406 11.199219 C 35.355469 11.199219 37.347656 -9.996094 37.347656 -22.398438 C 37.347656 -26.101562 37.160156 -29.0625 36.882812 -30.40625 C 36.328125 -33.089844 34.339844 -34.570312 32.347656 -34.570312 C 30.496094 -34.570312 28.601562 -33.226562 27.953125 -30.3125 Z M 22.121094 -36.699219 C 22.027344 -36.46875 21.9375 -36.28125 21.796875 -36.097656 L 21.519531 -35.820312 C 21.382812 -35.957031 21.101562 -36.097656 20.917969 -36.238281 L 20.363281 -36.652344 C 19.574219 -37.253906 18.652344 -37.625 17.679688 -37.625 C 17.539062 -37.625 17.355469 -37.578125 17.214844 -37.578125 C 16.335938 -37.484375 15.273438 -37.117188 14.902344 -36.191406 C 14.808594 -36.003906 14.808594 -35.867188 14.808594 -35.726562 C 14.808594 -35.078125 15.503906 -34.894531 16.199219 -34.894531 L 16.523438 -34.894531 C 16.84375 -34.941406 17.402344 -35.125 17.402344 -35.496094 L 17.402344 -35.542969 C 17.355469 -35.636719 17.308594 -35.679688 17.261719 -35.773438 C 17.261719 -36.003906 17.492188 -36.421875 17.679688 -36.46875 C 17.679688 -36.375 17.957031 -36.238281 18.003906 -36.191406 C 18.1875 -36.097656 18.328125 -35.957031 18.464844 -35.820312 C 19.113281 -35.3125 19.714844 -34.894531 20.5 -34.710938 C 20.824219 -34.617188 21.195312 -34.570312 21.519531 -34.570312 C 22.816406 -34.570312 23.972656 -35.171875 24.527344 -36.421875 C 24.527344 -36.46875 24.574219 -36.515625 24.574219 -36.558594 C 24.574219 -36.929688 23.925781 -37.117188 23.277344 -37.117188 C 22.769531 -37.117188 22.261719 -36.976562 22.121094 -36.699219 Z M 22.121094 -36.699219 "/></g></g></g><g fill="#eac3ae" fill-opacity="1"><g transform="translate(188.088036, 99.915343)"><g><path d="M 10.875 10.414062 L 11.0625 10.414062 C 20.039062 10.414062 24.433594 -0.648438 24.433594 -11.246094 C 24.433594 -20.917969 20.78125 -30.175781 13.511719 -30.359375 L 13.234375 -30.359375 C 4.582031 -30.359375 0.742188 -19.898438 0.742188 -9.578125 C 0.742188 0.417969 4.351562 10.320312 10.875 10.414062 Z M 10.828125 -24.019531 C 13.792969 -23.925781 15.132812 -18.050781 15.132812 -11.800781 C 15.132812 -4.535156 13.328125 3.285156 10.179688 3.285156 L 10.089844 3.285156 C 6.804688 3.148438 5.367188 -2.5 5.367188 -8.609375 C 5.367188 -15.964844 7.449219 -24.019531 10.78125 -24.019531 Z M 10.828125 -24.019531 "/></g></g></g><g fill="#eac3ae" fill-opacity="1"><g transform="translate(213.861061, 99.915343)"><g><path d="M 14.625 -31.332031 L 14.160156 -31.332031 C 6.570312 -31.332031 0.09375 -21.335938 0.09375 -11.199219 C 0.09375 -8.421875 0.601562 -5.601562 1.710938 -2.960938 C 5.921875 6.804688 17.585938 4.582031 17.726562 8.933594 L 17.726562 8.976562 C 17.726562 10.503906 15.320312 11.753906 13.929688 11.800781 L 13.652344 11.800781 C 9.859375 11.800781 10.226562 7.359375 6.570312 7.359375 C 6.246094 7.359375 5.878906 7.40625 5.460938 7.496094 C 4.488281 7.683594 3.933594 8.5625 3.933594 9.71875 C 3.933594 12.078125 6.386719 15.597656 12.402344 16.058594 L 13.003906 16.058594 C 17.125 16.058594 22.074219 12.910156 22.074219 8.839844 C 21.984375 -0.324219 9.671875 2.3125 7.359375 -12.078125 C 7.265625 -12.589844 7.21875 -13.46875 7.21875 -14.484375 C 7.21875 -18.140625 8.050781 -24.113281 12.21875 -25.960938 C 12.632812 -26.148438 12.957031 -26.242188 13.28125 -26.242188 C 15.363281 -26.242188 15.734375 -22.585938 15.734375 -18.464844 C 15.734375 -16.335938 15.640625 -14.023438 15.640625 -12.078125 C 15.640625 -10.738281 15.6875 -9.578125 15.828125 -8.746094 C 16.199219 -6.757812 17.445312 -5.921875 18.742188 -5.921875 C 19.898438 -5.921875 21.101562 -6.570312 21.84375 -7.636719 C 23.324219 -9.765625 24.25 -13.511719 24.25 -17.402344 C 24.25 -23.972656 21.613281 -30.914062 14.625 -31.332031 Z M 14.625 -31.332031 "/></g></g></g><g fill="#eac3ae" fill-opacity="1"><g transform="translate(239.449013, 99.915343)"><g><path d="M 9.394531 12.355469 C 9.902344 11.570312 11.476562 -11.105469 11.476562 -23.925781 C 11.476562 -26.84375 11.382812 -29.25 11.199219 -30.777344 C 10.921875 -32.671875 8.46875 -34.199219 6.109375 -34.199219 C 4.210938 -34.199219 2.40625 -33.226562 1.851562 -30.589844 C 1.480469 -27.859375 1.34375 -24.113281 1.34375 -19.945312 C 1.34375 -6.292969 2.914062 11.707031 3.609375 12.679688 C 4.441406 13.746094 5.414062 14.207031 6.339844 14.207031 C 7.542969 14.207031 8.699219 13.46875 9.394531 12.355469 Z M 9.394531 12.355469 "/></g></g></g><g fill="#eac3ae" fill-opacity="1"><g transform="translate(252.728824, 99.915343)"><g><path d="M 38.644531 -31.054688 C 36.558594 -32.257812 27.582031 -33.460938 18.558594 -33.460938 C 12.496094 -33.460938 6.433594 -32.90625 2.453125 -31.421875 C 1.433594 -31.054688 0.925781 -30.175781 0.925781 -29.25 C 0.925781 -28.230469 1.574219 -27.210938 2.960938 -26.796875 C 3.792969 -26.5625 11.339844 -24.667969 14.714844 -24.667969 C 14.300781 -18.605469 14.113281 -12.867188 14.113281 -7.683594 C 14.113281 8.238281 15.734375 19.253906 16.84375 20.316406 C 17.261719 21.566406 18.464844 22.074219 19.761719 22.074219 C 21.289062 22.074219 22.90625 21.382812 23.140625 20.5 C 24.714844 15.085938 26.933594 -3.515625 26.933594 -16.9375 C 26.933594 -19.855469 26.84375 -22.539062 26.609375 -24.757812 C 29.433594 -25.035156 36.421875 -26.332031 38.503906 -27.210938 C 39.289062 -27.582031 39.753906 -28.367188 39.753906 -29.15625 C 39.753906 -29.894531 39.429688 -30.589844 38.644531 -31.054688 Z M 38.644531 -31.054688 "/></g></g></g><g fill="#eac3ae" fill-opacity="1"><g transform="translate(293.817592, 99.915343)"><g><path d="M 10.875 10.414062 L 11.0625 10.414062 C 20.039062 10.414062 24.433594 -0.648438 24.433594 -11.246094 C 24.433594 -20.917969 20.78125 -30.175781 13.511719 -30.359375 L 13.234375 -30.359375 C 4.582031 -30.359375 0.742188 -19.898438 0.742188 -9.578125 C 0.742188 0.417969 4.351562 10.320312 10.875 10.414062 Z M 10.828125 -24.019531 C 13.792969 -23.925781 15.132812 -18.050781 15.132812 -11.800781 C 15.132812 -4.535156 13.328125 3.285156 10.179688 3.285156 L 10.089844 3.285156 C 6.804688 3.148438 5.367188 -2.5 5.367188 -8.609375 C 5.367188 -15.964844 7.449219 -24.019531 10.78125 -24.019531 Z M 10.828125 -24.019531 "/></g></g></g><g fill="#eac3ae" fill-opacity="1"><g transform="translate(319.590628, 99.915343)"><g><path d="M 14.625 -31.332031 L 14.160156 -31.332031 C 6.570312 -31.332031 0.09375 -21.335938 0.09375 -11.199219 C 0.09375 -8.421875 0.601562 -5.601562 1.710938 -2.960938 C 5.921875 6.804688 17.585938 4.582031 17.726562 8.933594 L 17.726562 8.976562 C 17.726562 10.503906 15.320312 11.753906 13.929688 11.800781 L 13.652344 11.800781 C 9.859375 11.800781 10.226562 7.359375 6.570312 7.359375 C 6.246094 7.359375 5.878906 7.40625 5.460938 7.496094 C 4.488281 7.683594 3.933594 8.5625 3.933594 9.71875 C 3.933594 12.078125 6.386719 15.597656 12.402344 16.058594 L 13.003906 16.058594 C 17.125 16.058594 22.074219 12.910156 22.074219 8.839844 C 21.984375 -0.324219 9.671875 2.3125 7.359375 -12.078125 C 7.265625 -12.589844 7.21875 -13.46875 7.21875 -14.484375 C 7.21875 -18.140625 8.050781 -24.113281 12.21875 -25.960938 C 12.632812 -26.148438 12.957031 -26.242188 13.28125 -26.242188 C 15.363281 -26.242188 15.734375 -22.585938 15.734375 -18.464844 C 15.734375 -16.335938 15.640625 -14.023438 15.640625 -12.078125 C 15.640625 -10.738281 15.6875 -9.578125 15.828125 -8.746094 C 16.199219 -6.757812 17.445312 -5.921875 18.742188 -5.921875 C 19.898438 -5.921875 21.101562 -6.570312 21.84375 -7.636719 C 23.324219 -9.765625 24.25 -13.511719 24.25 -17.402344 C 24.25 -23.972656 21.613281 -30.914062 14.625 -31.332031 Z M 14.625 -31.332031 "/></g></g></g></svg>